{
    "asset" : {
        "generator" : "Khronos glTF Blender I/O v1.6.16",
        "version" : "2.0"
    },
    "scene" : 0,
    "scenes" : [
        {
            "name" : "Scene",
            "nodes" : [
                5
            ]
        }
    ],
    "nodes" : [
        {
            "mesh" : 0,
            "name" : "body_w_gold_0.2145"
        },
        {
            "children" : [
                0
            ],
            "name" : "body",
            "rotation" : [
                0,
                0.7071067094802856,
                0,
                0.7071068286895752
            ],
            "scale" : [
                1.6999999284744263,
                1.6999999284744263,
                1.6999999284744263
            ]
        },
        {
            "children" : [
                1
            ],
            "name" : "RootNode"
        },
        {
            "children" : [
                2
            ],
            "name" : "c924c657f9cf406a82e4cc61d4fd1329.fbx",
            "rotation" : [
                0.7071068286895752,
                0,
                0,
                0.7071068286895752
            ]
        },
        {
            "children" : [
                3
            ],
            "name" : "RootNode (model correction matrix)"
        },
        {
            "children" : [
                4
            ],
            "name" : "RootNode (gltf orientation matrix)",
            "rotation" : [
                0.009810103103518486,
                0.7070387005805969,
                0.7070388197898865,
                0.009810072369873524
            ],
            "scale" : [
                0.005240793339908123,
                0.005240793339908123,
                0.005240793339908123
            ],
            "translation" : [
                0.02044343575835228,
                0,
                -0.003155320417135954
            ]
        }
    ],
    "materials" : [
        {
            "doubleSided" : true,
            "name" : "w_gold",
            "pbrMetallicRoughness" : {
                "baseColorFactor" : [
                    0.5098040103912354,
                    0.42839741706848145,
                    0.11372499912977219,
                    1
                ],
                "metallicFactor" : 0.6000000238418579,
                "roughnessFactor" : 0
            }
        },
        {
            "doubleSided" : true,
            "name" : "tire",
            "pbrMetallicRoughness" : {
                "baseColorTexture" : {
                    "index" : 0
                },
                "metallicFactor" : 0,
                "roughnessFactor" : 0.800000011920929
            }
        },
        {
            "doubleSided" : true,
            "name" : "w_chrome",
            "pbrMetallicRoughness" : {
                "baseColorFactor" : [
                    0.5879999995231628,
                    0.5879999995231628,
                    0.5879999995231628,
                    1
                ],
                "metallicFactor" : 0.800000011920929,
                "roughnessFactor" : 0
            }
        }
    ],
    "meshes" : [
        {
            "name" : "body_w_gold_0.2145",
            "primitives" : [
                {
                    "attributes" : {
                        "POSITION" : 0,
                        "NORMAL" : 1,
                        "TEXCOORD_0" : 2,
                        "TEXCOORD_1" : 3,
                        "TEXCOORD_2" : 4,
                        "COLOR_0" : 5
                    },
                    "indices" : 6,
                    "material" : 0
                },
                {
                    "attributes" : {
                        "POSITION" : 7,
                        "NORMAL" : 8,
                        "TEXCOORD_0" : 9,
                        "TEXCOORD_1" : 10,
                        "TEXCOORD_2" : 11,
                        "COLOR_0" : 12
                    },
                    "indices" : 13,
                    "material" : 1
                },
                {
                    "attributes" : {
                        "POSITION" : 14,
                        "NORMAL" : 15,
                        "TEXCOORD_0" : 16,
                        "TEXCOORD_1" : 17,
                        "TEXCOORD_2" : 18,
                        "COLOR_0" : 19
                    },
                    "indices" : 20,
                    "material" : 2
                }
            ]
        }
    ],
    "textures" : [
        {
            "sampler" : 0,
            "source" : 0
        }
    ],
    "images" : [
        {
            "bufferView" : 14,
            "mimeType" : "image/png",
            "name" : "tire_baseColor"
        }
    ],
    "accessors" : [
        {
            "bufferView" : 0,
            "componentType" : 5126,
            "count" : 4821,
            "max" : [
                19.723464965820312,
                19.696561813354492,
                3.5594100952148438
            ],
            "min" : [
                -19.747108459472656,
                -19.749984741210938,
                -0.15480804443359375
            ],
            "type" : "VEC3"
        },
        {
            "bufferView" : 1,
            "componentType" : 5126,
            "count" : 4821,
            "type" : "VEC3"
        },
        {
            "bufferView" : 2,
            "componentType" : 5126,
            "count" : 4821,
            "type" : "VEC2"
        },
        {
            "bufferView" : 3,
            "componentType" : 5126,
            "count" : 4821,
            "type" : "VEC2"
        },
        {
            "bufferView" : 4,
            "componentType" : 5126,
            "count" : 4821,
            "type" : "VEC2"
        },
        {
            "bufferView" : 5,
            "componentType" : 5123,
            "count" : 4821,
            "normalized" : true,
            "type" : "VEC4"
        },
        {
            "bufferView" : 6,
            "componentType" : 5123,
            "count" : 9711,
            "type" : "SCALAR"
        },
        {
            "bufferView" : 7,
            "componentType" : 5126,
            "count" : 657,
            "max" : [
                38.22343444824219,
                38.4022102355957,
                21.68177032470703
            ],
            "min" : [
                -38.24713134765625,
                -38.81178283691406,
                -10.336662292480469
            ],
            "type" : "VEC3"
        },
        {
            "bufferView" : 8,
            "componentType" : 5126,
            "count" : 657,
            "type" : "VEC3"
        },
        {
            "bufferView" : 9,
            "componentType" : 5126,
            "count" : 657,
            "type" : "VEC2"
        },
        {
            "bufferView" : 10,
            "componentType" : 5126,
            "count" : 657,
            "type" : "VEC2"
        },
        {
            "bufferView" : 11,
            "componentType" : 5126,
            "count" : 657,
            "type" : "VEC2"
        },
        {
            "bufferView" : 12,
            "componentType" : 5123,
            "count" : 657,
            "normalized" : true,
            "type" : "VEC4"
        },
        {
            "bufferView" : 13,
            "componentType" : 5123,
            "count" : 1401,
            "type" : "SCALAR"
        },
        {
            "bufferView" : 15,
            "componentType" : 5126,
            "count" : 1729,
            "max" : [
                26.458770751953125,
                26.71768569946289,
                1.6218643188476562
            ],
            "min" : [
                -26.482421875,
                -26.191238403320312,
                -8.877998352050781
            ],
            "type" : "VEC3"
        },
        {
            "bufferView" : 16,
            "componentType" : 5126,
            "count" : 1729,
            "type" : "VEC3"
        },
        {
            "bufferView" : 17,
            "componentType" : 5126,
            "count" : 1729,
            "type" : "VEC2"
        },
        {
            "bufferView" : 18,
            "componentType" : 5126,
            "count" : 1729,
            "type" : "VEC2"
        },
        {
            "bufferView" : 19,
            "componentType" : 5126,
            "count" : 1729,
            "type" : "VEC2"
        },
        {
            "bufferView" : 20,
            "componentType" : 5123,
            "count" : 1729,
            "normalized" : true,
            "type" : "VEC4"
        },
        {
            "bufferView" : 21,
            "componentType" : 5123,
            "count" : 3603,
            "type" : "SCALAR"
        }
    ],
    "bufferViews" : [
        {
            "buffer" : 0,
            "byteLength" : 57852,
            "byteOffset" : 0
        },
        {
            "buffer" : 0,
            "byteLength" : 57852,
            "byteOffset" : 57852
        },
        {
            "buffer" : 0,
            "byteLength" : 38568,
            "byteOffset" : 115704
        },
        {
            "buffer" : 0,
            "byteLength" : 38568,
            "byteOffset" : 154272
        },
        {
            "buffer" : 0,
            "byteLength" : 38568,
            "byteOffset" : 192840
        },
        {
            "buffer" : 0,
            "byteLength" : 38568,
            "byteOffset" : 231408
        },
        {
            "buffer" : 0,
            "byteLength" : 19422,
            "byteOffset" : 269976
        },
        {
            "buffer" : 0,
            "byteLength" : 7884,
            "byteOffset" : 289400
        },
        {
            "buffer" : 0,
            "byteLength" : 7884,
            "byteOffset" : 297284
        },
        {
            "buffer" : 0,
            "byteLength" : 5256,
            "byteOffset" : 305168
        },
        {
            "buffer" : 0,
            "byteLength" : 5256,
            "byteOffset" : 310424
        },
        {
            "buffer" : 0,
            "byteLength" : 5256,
            "byteOffset" : 315680
        },
        {
            "buffer" : 0,
            "byteLength" : 5256,
            "byteOffset" : 320936
        },
        {
            "buffer" : 0,
            "byteLength" : 2802,
            "byteOffset" : 326192
        },
        {
            "buffer" : 0,
            "byteLength" : 29796,
            "byteOffset" : 328996
        },
        {
            "buffer" : 0,
            "byteLength" : 20748,
            "byteOffset" : 358792
        },
        {
            "buffer" : 0,
            "byteLength" : 20748,
            "byteOffset" : 379540
        },
        {
            "buffer" : 0,
            "byteLength" : 13832,
            "byteOffset" : 400288
        },
        {
            "buffer" : 0,
            "byteLength" : 13832,
            "byteOffset" : 414120
        },
        {
            "buffer" : 0,
            "byteLength" : 13832,
            "byteOffset" : 427952
        },
        {
            "buffer" : 0,
            "byteLength" : 13832,
            "byteOffset" : 441784
        },
        {
            "buffer" : 0,
            "byteLength" : 7206,
            "byteOffset" : 455616
        }
    ],
    "samplers" : [
        {
            "magFilter" : 9729,
            "minFilter" : 9987
        }
    ],
    "buffers" : [
        {
            "byteLength" : 462824,
            "uri" : "data:application/octet-stream;base64,"
        }
    ]
}
