{
    "asset" : {
        "generator" : "Khronos glTF Blender I/O v1.6.16",
        "version" : "2.0"
    },
    "scene" : 0,
    "scenes" : [
        {
            "name" : "Scene",
            "nodes" : [
                7
            ]
        }
    ],
    "nodes" : [
        {
            "mesh" : 0,
            "name" : "wheel.Bk.R_dino wheel logo.001_0"
        },
        {
            "mesh" : 1,
            "name" : "wheel.Bk.R_tire.003_0"
        },
        {
            "mesh" : 2,
            "name" : "wheel.Bk.R_wheel.001_0"
        },
        {
            "children" : [
                0,
                1,
                2
            ],
            "name" : "wheel.Bk.R",
            "rotation" : [
                -0.7071068286895752,
                0,
                0,
                0.7071067094802856
            ],
            "scale" : [
                100,
                100,
                100
            ],
            "translation" : [
                12.444059371948242,
                0.03882491588592529,
                -1.3531087636947632
            ]
        },
        {
            "children" : [
                3
            ],
            "name" : "RootNode"
        },
        {
            "children" : [
                4
            ],
            "name" : "c1f89a5f57ad454b8048987467a9edc3.fbx",
            "rotation" : [
                1,
                0,
                0,
                0
            ],
            "translation" : [
                0,
                0,
                -1.375797986984253
            ]
        },
        {
            "children" : [
                5
            ],
            "name" : "RootNode (model correction matrix)"
        },
        {
            "children" : [
                6
            ],
            "name" : "RootNode (gltf orientation matrix)",
            "rotation" : [
                0,
                0.7071067094802856,
                0.7071068286895752,
                -3.0908616110991716e-08
            ],
            "scale" : [
                0.01718851551413536,
                0.014356588944792747,
                0.014356588944792747
            ],
            "translation" : [
                0.21434293687343597,
                0,
                0
            ]
        }
    ],
    "materials" : [
        {
            "doubleSided" : true,
            "name" : "dino_wheel_logo.001",
            "pbrMetallicRoughness" : {
                "baseColorTexture" : {
                    "index" : 0
                },
                "metallicFactor" : 0.4000000059604645,
                "roughnessFactor" : 0.029999999329447746
            }
        },
        {
            "doubleSided" : true,
            "name" : "tire.003",
            "pbrMetallicRoughness" : {
                "baseColorFactor" : [
                    0.7926760911941528,
                    0.7926760911941528,
                    0.7926760911941528,
                    1
                ],
                "metallicFactor" : 0.8999248743057251,
                "roughnessFactor" : 0.15032100677490234
            }
        },
        {
            "doubleSided" : true,
            "name" : "wheel.001",
            "pbrMetallicRoughness" : {
                "baseColorFactor" : [
                    0,
                    0,
                    0,
                    1
                ],
                "baseColorTexture" : {
                    "index" : 1
                },
                "metallicRoughnessTexture" : {
                    "index" : 2
                }
            }
        }
    ],
    "meshes" : [
        {
            "name" : "wheel.Bk.R_dino wheel logo.001_0",
            "primitives" : [
                {
                    "attributes" : {
                        "POSITION" : 0,
                        "NORMAL" : 1,
                        "TEXCOORD_0" : 2
                    },
                    "indices" : 3,
                    "material" : 0
                }
            ]
        },
        {
            "name" : "wheel.Bk.R_tire.003_0",
            "primitives" : [
                {
                    "attributes" : {
                        "POSITION" : 4,
                        "NORMAL" : 5,
                        "TEXCOORD_0" : 6
                    },
                    "indices" : 7,
                    "material" : 1
                }
            ]
        },
        {
            "name" : "wheel.Bk.R_wheel.001_0",
            "primitives" : [
                {
                    "attributes" : {
                        "POSITION" : 8,
                        "NORMAL" : 9,
                        "TEXCOORD_0" : 10
                    },
                    "indices" : 11,
                    "material" : 2
                }
            ]
        }
    ],
    "textures" : [
        {
            "sampler" : 0,
            "source" : 0
        },
        {
            "sampler" : 0,
            "source" : 1
        },
        {
            "sampler" : 0,
            "source" : 2
        }
    ],
    "images" : [
        {
            "bufferView" : 4,
            "mimeType" : "image/png",
            "name" : "dino_wheel_logo_001_baseColor"
        },
        {
            "bufferView" : 13,
            "mimeType" : "image/png",
            "name" : "wheel_001_baseColor"
        },
        {
            "bufferView" : 14,
            "mimeType" : "image/png",
            "name" : "wheel_001_metallicRoughness"
        }
    ],
    "accessors" : [
        {
            "bufferView" : 0,
            "componentType" : 5126,
            "count" : 930,
            "max" : [
                -0.03576286509633064,
                0.02041032165288925,
                0.020410198718309402
            ],
            "min" : [
                -0.03961551934480667,
                -0.02041027508676052,
                -0.020410193130373955
            ],
            "type" : "VEC3"
        },
        {
            "bufferView" : 1,
            "componentType" : 5126,
            "count" : 930,
            "type" : "VEC3"
        },
        {
            "bufferView" : 2,
            "componentType" : 5126,
            "count" : 930,
            "type" : "VEC2"
        },
        {
            "bufferView" : 3,
            "componentType" : 5123,
            "count" : 3420,
            "type" : "SCALAR"
        },
        {
            "bufferView" : 5,
            "componentType" : 5126,
            "count" : 37901,
            "max" : [
                -0.018615789711475372,
                0.13995790481567383,
                0.13999713957309723
            ],
            "min" : [
                -0.05709965154528618,
                -0.13995757699012756,
                -0.13999630510807037
            ],
            "type" : "VEC3"
        },
        {
            "bufferView" : 6,
            "componentType" : 5126,
            "count" : 37901,
            "type" : "VEC3"
        },
        {
            "bufferView" : 7,
            "componentType" : 5126,
            "count" : 37901,
            "type" : "VEC2"
        },
        {
            "bufferView" : 8,
            "componentType" : 5123,
            "count" : 93792,
            "type" : "SCALAR"
        },
        {
            "bufferView" : 9,
            "componentType" : 5126,
            "count" : 21656,
            "max" : [
                0.06836650520563126,
                0.21927770972251892,
                0.21927081048488617
            ],
            "min" : [
                -0.06869811564683914,
                -0.2192651629447937,
                -0.21927103400230408
            ],
            "type" : "VEC3"
        },
        {
            "bufferView" : 10,
            "componentType" : 5126,
            "count" : 21656,
            "type" : "VEC3"
        },
        {
            "bufferView" : 11,
            "componentType" : 5126,
            "count" : 21656,
            "type" : "VEC2"
        },
        {
            "bufferView" : 12,
            "componentType" : 5123,
            "count" : 49848,
            "type" : "SCALAR"
        }
    ],
    "bufferViews" : [
        {
            "buffer" : 0,
            "byteLength" : 11160,
            "byteOffset" : 0
        },
        {
            "buffer" : 0,
            "byteLength" : 11160,
            "byteOffset" : 11160
        },
        {
            "buffer" : 0,
            "byteLength" : 7440,
            "byteOffset" : 22320
        },
        {
            "buffer" : 0,
            "byteLength" : 6840,
            "byteOffset" : 29760
        },
        {
            "buffer" : 0,
            "byteLength" : 34935,
            "byteOffset" : 36600
        },
        {
            "buffer" : 0,
            "byteLength" : 454812,
            "byteOffset" : 71536
        },
        {
            "buffer" : 0,
            "byteLength" : 454812,
            "byteOffset" : 526348
        },
        {
            "buffer" : 0,
            "byteLength" : 303208,
            "byteOffset" : 981160
        },
        {
            "buffer" : 0,
            "byteLength" : 187584,
            "byteOffset" : 1284368
        },
        {
            "buffer" : 0,
            "byteLength" : 259872,
            "byteOffset" : 1471952
        },
        {
            "buffer" : 0,
            "byteLength" : 259872,
            "byteOffset" : 1731824
        },
        {
            "buffer" : 0,
            "byteLength" : 173248,
            "byteOffset" : 1991696
        },
        {
            "buffer" : 0,
            "byteLength" : 99696,
            "byteOffset" : 2164944
        },
        {
            "buffer" : 0,
            "byteLength" : 70817,
            "byteOffset" : 2264640
        },
        {
            "buffer" : 0,
            "byteLength" : 38557,
            "byteOffset" : 2335460
        }
    ],
    "samplers" : [
        {
            "magFilter" : 9729,
            "minFilter" : 9987
        }
    ],
    "buffers" : [
        {
            "byteLength" : 2374020,
            "uri" : "data:application/octet-stream;base64,"
        }
    ]
}
