{
    "asset" : {
        "generator" : "Khronos glTF Blender I/O v1.6.16",
        "version" : "2.0"
    },
    "scene" : 0,
    "scenes" : [
        {
            "name" : "Scene",
            "nodes" : [
                14
            ]
        }
    ],
    "nodes" : [
        {
            "mesh" : 0,
            "name" : "Mesh_1.023"
        },
        {
            "mesh" : 1,
            "name" : "Mesh_1.025"
        },
        {
            "mesh" : 2,
            "name" : "Mesh_1.216"
        },
        {
            "mesh" : 3,
            "name" : "Mesh_1.256"
        },
        {
            "mesh" : 4,
            "name" : "Mesh_1.397"
        },
        {
            "mesh" : 5,
            "name" : "Mesh_1.443"
        },
        {
            "mesh" : 6,
            "name" : "Mesh_1.473",
            "rotation" : [
                0,
                0,
                0.9198408722877502,
                0.39229169487953186
            ],
            "translation" : [
                -4.9515581130981445,
                -38.99169158935547,
                0
            ]
        },
        {
            "mesh" : 7,
            "name" : "Mesh_1.526"
        },
        {
            "mesh" : 8,
            "name" : "Mesh_1.552"
        },
        {
            "mesh" : 9,
            "name" : "Mesh_1.568"
        },
        {
            "mesh" : 10,
            "name" : "Mesh_1.580"
        },
        {
            "mesh" : 11,
            "name" : "Mesh_1.772"
        },
        {
            "mesh" : 12,
            "name" : "Mesh_1.933"
        },
        {
            "children" : [
                0,
                1,
                2,
                3,
                4,
                5,
                6,
                7,
                8,
                9,
                10,
                11,
                12
            ],
            "name" : "LadaNiva2329.obj.cleaner.materialmerger.gles"
        },
        {
            "children" : [
                13
            ],
            "name" : "RootNode (model correction matrix)",
            "rotation" : [
                0,
                0,
                0.39296749234199524,
                0.9195523858070374
            ],
            "scale" : [
                0.00970145408064127,
                0.00970145408064127,
                0.00970145408064127
            ],
            "translation" : [
                -0.268728643655777,
                0.2961637079715729,
                0
            ]
        }
    ],
    "materials" : [
        {
            "doubleSided" : true,
            "name" : "tex_0106_0.001",
            "normalTexture" : {
                "index" : 0
            },
            "pbrMetallicRoughness" : {
                "baseColorTexture" : {
                    "index" : 1
                },
                "metallicFactor" : 0,
                "metallicRoughnessTexture" : {
                    "index" : 2
                }
            }
        }
    ],
    "meshes" : [
        {
            "name" : "Mesh_1.023",
            "primitives" : [
                {
                    "attributes" : {
                        "POSITION" : 0,
                        "NORMAL" : 1,
                        "TEXCOORD_0" : 2
                    },
                    "indices" : 3,
                    "material" : 0
                }
            ]
        },
        {
            "name" : "Mesh_1.025",
            "primitives" : [
                {
                    "attributes" : {
                        "POSITION" : 4,
                        "NORMAL" : 5,
                        "TEXCOORD_0" : 6
                    },
                    "indices" : 3,
                    "material" : 0
                }
            ]
        },
        {
            "name" : "Mesh_1.216",
            "primitives" : [
                {
                    "attributes" : {
                        "POSITION" : 7,
                        "NORMAL" : 8,
                        "TEXCOORD_0" : 9
                    },
                    "indices" : 3,
                    "material" : 0
                }
            ]
        },
        {
            "name" : "Mesh_1.256",
            "primitives" : [
                {
                    "attributes" : {
                        "POSITION" : 10,
                        "NORMAL" : 11,
                        "TEXCOORD_0" : 12
                    },
                    "indices" : 13,
                    "material" : 0
                }
            ]
        },
        {
            "name" : "Mesh_1.397",
            "primitives" : [
                {
                    "attributes" : {
                        "POSITION" : 14,
                        "NORMAL" : 15,
                        "TEXCOORD_0" : 16
                    },
                    "indices" : 3,
                    "material" : 0
                }
            ]
        },
        {
            "name" : "Mesh_1.443",
            "primitives" : [
                {
                    "attributes" : {
                        "POSITION" : 17,
                        "NORMAL" : 18,
                        "TEXCOORD_0" : 19
                    },
                    "indices" : 20,
                    "material" : 0
                }
            ]
        },
        {
            "name" : "Mesh_1.473",
            "primitives" : [
                {
                    "attributes" : {
                        "POSITION" : 21,
                        "NORMAL" : 22,
                        "TEXCOORD_0" : 23
                    },
                    "indices" : 24,
                    "material" : 0
                }
            ]
        },
        {
            "name" : "Mesh_1.526",
            "primitives" : [
                {
                    "attributes" : {
                        "POSITION" : 25,
                        "NORMAL" : 26,
                        "TEXCOORD_0" : 27
                    },
                    "indices" : 20,
                    "material" : 0
                }
            ]
        },
        {
            "name" : "Mesh_1.552",
            "primitives" : [
                {
                    "attributes" : {
                        "POSITION" : 28,
                        "NORMAL" : 29,
                        "TEXCOORD_0" : 30
                    },
                    "indices" : 20,
                    "material" : 0
                }
            ]
        },
        {
            "name" : "Mesh_1.568",
            "primitives" : [
                {
                    "attributes" : {
                        "POSITION" : 31,
                        "NORMAL" : 32,
                        "TEXCOORD_0" : 33
                    },
                    "indices" : 3,
                    "material" : 0
                }
            ]
        },
        {
            "name" : "Mesh_1.580",
            "primitives" : [
                {
                    "attributes" : {
                        "POSITION" : 34,
                        "NORMAL" : 35,
                        "TEXCOORD_0" : 36
                    },
                    "indices" : 20,
                    "material" : 0
                }
            ]
        },
        {
            "name" : "Mesh_1.772",
            "primitives" : [
                {
                    "attributes" : {
                        "POSITION" : 37,
                        "NORMAL" : 38,
                        "TEXCOORD_0" : 39
                    },
                    "indices" : 40,
                    "material" : 0
                }
            ]
        },
        {
            "name" : "Mesh_1.933",
            "primitives" : [
                {
                    "attributes" : {
                        "POSITION" : 41,
                        "NORMAL" : 42,
                        "TEXCOORD_0" : 43
                    },
                    "indices" : 44,
                    "material" : 0
                }
            ]
        }
    ],
    "textures" : [
        {
            "sampler" : 0,
            "source" : 0
        },
        {
            "sampler" : 0,
            "source" : 1
        },
        {
            "sampler" : 0,
            "source" : 2
        }
    ],
    "images" : [
        {
            "bufferView" : 4,
            "mimeType" : "image/png",
            "name" : "tex_0106_0_normal"
        },
        {
            "bufferView" : 5,
            "mimeType" : "image/png",
            "name" : "tex_0106_0_baseColor"
        },
        {
            "bufferView" : 6,
            "mimeType" : "image/png",
            "name" : "tex_0106_0_metallicRoughness"
        }
    ],
    "accessors" : [
        {
            "bufferView" : 0,
            "componentType" : 5126,
            "count" : 3,
            "max" : [
                86.1708984375,
                -122.53630065917969,
                39.032798767089844
            ],
            "min" : [
                84.47709655761719,
                -122.92729949951172,
                37.067100524902344
            ],
            "type" : "VEC3"
        },
        {
            "bufferView" : 1,
            "componentType" : 5126,
            "count" : 3,
            "type" : "VEC3"
        },
        {
            "bufferView" : 2,
            "componentType" : 5126,
            "count" : 3,
            "type" : "VEC2"
        },
        {
            "bufferView" : 3,
            "componentType" : 5123,
            "count" : 3,
            "type" : "SCALAR"
        },
        {
            "bufferView" : 7,
            "componentType" : 5126,
            "count" : 3,
            "max" : [
                87.57389831542969,
                -118.80169677734375,
                40.38019943237305
            ],
            "min" : [
                85.79920196533203,
                -119.4802017211914,
                37.11520004272461
            ],
            "type" : "VEC3"
        },
        {
            "bufferView" : 8,
            "componentType" : 5126,
            "count" : 3,
            "type" : "VEC3"
        },
        {
            "bufferView" : 9,
            "componentType" : 5126,
            "count" : 3,
            "type" : "VEC2"
        },
        {
            "bufferView" : 10,
            "componentType" : 5126,
            "count" : 3,
            "max" : [
                86.1708984375,
                138.5312042236328,
                39.032798767089844
            ],
            "min" : [
                84.47709655761719,
                138.14019775390625,
                37.067100524902344
            ],
            "type" : "VEC3"
        },
        {
            "bufferView" : 11,
            "componentType" : 5126,
            "count" : 3,
            "type" : "VEC3"
        },
        {
            "bufferView" : 12,
            "componentType" : 5126,
            "count" : 3,
            "type" : "VEC2"
        },
        {
            "bufferView" : 13,
            "componentType" : 5126,
            "count" : 3,
            "max" : [
                87.76170349121094,
                122.59439849853516,
                39.10240173339844
            ],
            "min" : [
                85.60389709472656,
                122.41799926757812,
                37.8474006652832
            ],
            "type" : "VEC3"
        },
        {
            "bufferView" : 14,
            "componentType" : 5126,
            "count" : 3,
            "type" : "VEC3"
        },
        {
            "bufferView" : 15,
            "componentType" : 5126,
            "count" : 3,
            "type" : "VEC2"
        },
        {
            "bufferView" : 16,
            "componentType" : 5123,
            "count" : 3,
            "type" : "SCALAR"
        },
        {
            "bufferView" : 17,
            "componentType" : 5126,
            "count" : 3,
            "max" : [
                87.76170349121094,
                -125.668701171875,
                38.50170135498047
            ],
            "min" : [
                85.60389709472656,
                -126.26370239257812,
                37.3827018737793
            ],
            "type" : "VEC3"
        },
        {
            "bufferView" : 18,
            "componentType" : 5126,
            "count" : 3,
            "type" : "VEC3"
        },
        {
            "bufferView" : 19,
            "componentType" : 5126,
            "count" : 3,
            "type" : "VEC2"
        },
        {
            "bufferView" : 20,
            "componentType" : 5126,
            "count" : 3,
            "max" : [
                87.76170349121094,
                128.96800231933594,
                43.8932991027832
            ],
            "min" : [
                85.60389709472656,
                128.5345001220703,
                42.70240020751953
            ],
            "type" : "VEC3"
        },
        {
            "bufferView" : 21,
            "componentType" : 5126,
            "count" : 3,
            "type" : "VEC3"
        },
        {
            "bufferView" : 22,
            "componentType" : 5126,
            "count" : 3,
            "type" : "VEC2"
        },
        {
            "bufferView" : 23,
            "componentType" : 5123,
            "count" : 3,
            "type" : "SCALAR"
        },
        {
            "bufferView" : 24,
            "componentType" : 5126,
            "count" : 3324,
            "max" : [
                9.93353271484375,
                36.545196533203125,
                36.551448822021484
            ],
            "min" : [
                -15.156867980957031,
                -36.790313720703125,
                -36.784358978271484
            ],
            "type" : "VEC3"
        },
        {
            "bufferView" : 25,
            "componentType" : 5126,
            "count" : 3324,
            "type" : "VEC3"
        },
        {
            "bufferView" : 26,
            "componentType" : 5126,
            "count" : 3324,
            "type" : "VEC2"
        },
        {
            "bufferView" : 27,
            "componentType" : 5123,
            "count" : 8223,
            "type" : "SCALAR"
        },
        {
            "bufferView" : 28,
            "componentType" : 5126,
            "count" : 3,
            "max" : [
                87.76170349121094,
                -136.29930114746094,
                38.79690170288086
            ],
            "min" : [
                87.76170349121094,
                -137.6508026123047,
                37.06719970703125
            ],
            "type" : "VEC3"
        },
        {
            "bufferView" : 29,
            "componentType" : 5126,
            "count" : 3,
            "type" : "VEC3"
        },
        {
            "bufferView" : 30,
            "componentType" : 5126,
            "count" : 3,
            "type" : "VEC2"
        },
        {
            "bufferView" : 31,
            "componentType" : 5126,
            "count" : 3,
            "max" : [
                87.21440124511719,
                129.79330444335938,
                48.12289810180664
            ],
            "min" : [
                84.47709655761719,
                129.12229919433594,
                45.040199279785156
            ],
            "type" : "VEC3"
        },
        {
            "bufferView" : 32,
            "componentType" : 5126,
            "count" : 3,
            "type" : "VEC3"
        },
        {
            "bufferView" : 33,
            "componentType" : 5126,
            "count" : 3,
            "type" : "VEC2"
        },
        {
            "bufferView" : 34,
            "componentType" : 5126,
            "count" : 3,
            "max" : [
                86.1708984375,
                121.56729888916016,
                35.65850067138672
            ],
            "min" : [
                84.47709655761719,
                121.17630004882812,
                33.69279861450195
            ],
            "type" : "VEC3"
        },
        {
            "bufferView" : 35,
            "componentType" : 5126,
            "count" : 3,
            "type" : "VEC3"
        },
        {
            "bufferView" : 36,
            "componentType" : 5126,
            "count" : 3,
            "type" : "VEC2"
        },
        {
            "bufferView" : 37,
            "componentType" : 5126,
            "count" : 3,
            "max" : [
                87.76170349121094,
                127.1947021484375,
                32.27830123901367
            ],
            "min" : [
                87.76170349121094,
                125.96720123291016,
                30.458499908447266
            ],
            "type" : "VEC3"
        },
        {
            "bufferView" : 38,
            "componentType" : 5126,
            "count" : 3,
            "type" : "VEC3"
        },
        {
            "bufferView" : 39,
            "componentType" : 5126,
            "count" : 3,
            "type" : "VEC2"
        },
        {
            "bufferView" : 40,
            "componentType" : 5126,
            "count" : 4,
            "max" : [
                71.70800018310547,
                97.10389709472656,
                49.20130157470703
            ],
            "min" : [
                70.87999725341797,
                95.03340148925781,
                47.194698333740234
            ],
            "type" : "VEC3"
        },
        {
            "bufferView" : 41,
            "componentType" : 5126,
            "count" : 4,
            "type" : "VEC3"
        },
        {
            "bufferView" : 42,
            "componentType" : 5126,
            "count" : 4,
            "type" : "VEC2"
        },
        {
            "bufferView" : 43,
            "componentType" : 5123,
            "count" : 6,
            "type" : "SCALAR"
        },
        {
            "bufferView" : 44,
            "componentType" : 5126,
            "count" : 4,
            "max" : [
                87.57389831542969,
                125.8363037109375,
                48.11800003051758
            ],
            "min" : [
                85.50050354003906,
                125.4092025756836,
                47.24589920043945
            ],
            "type" : "VEC3"
        },
        {
            "bufferView" : 45,
            "componentType" : 5126,
            "count" : 4,
            "type" : "VEC3"
        },
        {
            "bufferView" : 46,
            "componentType" : 5126,
            "count" : 4,
            "type" : "VEC2"
        },
        {
            "bufferView" : 47,
            "componentType" : 5123,
            "count" : 6,
            "type" : "SCALAR"
        }
    ],
    "bufferViews" : [
        {
            "buffer" : 0,
            "byteLength" : 36,
            "byteOffset" : 0
        },
        {
            "buffer" : 0,
            "byteLength" : 36,
            "byteOffset" : 36
        },
        {
            "buffer" : 0,
            "byteLength" : 24,
            "byteOffset" : 72
        },
        {
            "buffer" : 0,
            "byteLength" : 6,
            "byteOffset" : 96
        },
        {
            "buffer" : 0,
            "byteLength" : 163400,
            "byteOffset" : 104
        },
        {
            "buffer" : 0,
            "byteLength" : 145740,
            "byteOffset" : 163504
        },
        {
            "buffer" : 0,
            "byteLength" : 95810,
            "byteOffset" : 309244
        },
        {
            "buffer" : 0,
            "byteLength" : 36,
            "byteOffset" : 405056
        },
        {
            "buffer" : 0,
            "byteLength" : 36,
            "byteOffset" : 405092
        },
        {
            "buffer" : 0,
            "byteLength" : 24,
            "byteOffset" : 405128
        },
        {
            "buffer" : 0,
            "byteLength" : 36,
            "byteOffset" : 405152
        },
        {
            "buffer" : 0,
            "byteLength" : 36,
            "byteOffset" : 405188
        },
        {
            "buffer" : 0,
            "byteLength" : 24,
            "byteOffset" : 405224
        },
        {
            "buffer" : 0,
            "byteLength" : 36,
            "byteOffset" : 405248
        },
        {
            "buffer" : 0,
            "byteLength" : 36,
            "byteOffset" : 405284
        },
        {
            "buffer" : 0,
            "byteLength" : 24,
            "byteOffset" : 405320
        },
        {
            "buffer" : 0,
            "byteLength" : 6,
            "byteOffset" : 405344
        },
        {
            "buffer" : 0,
            "byteLength" : 36,
            "byteOffset" : 405352
        },
        {
            "buffer" : 0,
            "byteLength" : 36,
            "byteOffset" : 405388
        },
        {
            "buffer" : 0,
            "byteLength" : 24,
            "byteOffset" : 405424
        },
        {
            "buffer" : 0,
            "byteLength" : 36,
            "byteOffset" : 405448
        },
        {
            "buffer" : 0,
            "byteLength" : 36,
            "byteOffset" : 405484
        },
        {
            "buffer" : 0,
            "byteLength" : 24,
            "byteOffset" : 405520
        },
        {
            "buffer" : 0,
            "byteLength" : 6,
            "byteOffset" : 405544
        },
        {
            "buffer" : 0,
            "byteLength" : 39888,
            "byteOffset" : 405552
        },
        {
            "buffer" : 0,
            "byteLength" : 39888,
            "byteOffset" : 445440
        },
        {
            "buffer" : 0,
            "byteLength" : 26592,
            "byteOffset" : 485328
        },
        {
            "buffer" : 0,
            "byteLength" : 16446,
            "byteOffset" : 511920
        },
        {
            "buffer" : 0,
            "byteLength" : 36,
            "byteOffset" : 528368
        },
        {
            "buffer" : 0,
            "byteLength" : 36,
            "byteOffset" : 528404
        },
        {
            "buffer" : 0,
            "byteLength" : 24,
            "byteOffset" : 528440
        },
        {
            "buffer" : 0,
            "byteLength" : 36,
            "byteOffset" : 528464
        },
        {
            "buffer" : 0,
            "byteLength" : 36,
            "byteOffset" : 528500
        },
        {
            "buffer" : 0,
            "byteLength" : 24,
            "byteOffset" : 528536
        },
        {
            "buffer" : 0,
            "byteLength" : 36,
            "byteOffset" : 528560
        },
        {
            "buffer" : 0,
            "byteLength" : 36,
            "byteOffset" : 528596
        },
        {
            "buffer" : 0,
            "byteLength" : 24,
            "byteOffset" : 528632
        },
        {
            "buffer" : 0,
            "byteLength" : 36,
            "byteOffset" : 528656
        },
        {
            "buffer" : 0,
            "byteLength" : 36,
            "byteOffset" : 528692
        },
        {
            "buffer" : 0,
            "byteLength" : 24,
            "byteOffset" : 528728
        },
        {
            "buffer" : 0,
            "byteLength" : 48,
            "byteOffset" : 528752
        },
        {
            "buffer" : 0,
            "byteLength" : 48,
            "byteOffset" : 528800
        },
        {
            "buffer" : 0,
            "byteLength" : 32,
            "byteOffset" : 528848
        },
        {
            "buffer" : 0,
            "byteLength" : 12,
            "byteOffset" : 528880
        },
        {
            "buffer" : 0,
            "byteLength" : 48,
            "byteOffset" : 528892
        },
        {
            "buffer" : 0,
            "byteLength" : 48,
            "byteOffset" : 528940
        },
        {
            "buffer" : 0,
            "byteLength" : 32,
            "byteOffset" : 528988
        },
        {
            "buffer" : 0,
            "byteLength" : 12,
            "byteOffset" : 529020
        }
    ],
    "samplers" : [
        {
            "magFilter" : 9729,
            "minFilter" : 9987
        }
    ],
    "buffers" : [
        {
            "byteLength" : 529032,
            "uri" : "data:application/octet-stream;base64,"
        }
    ]
}
