{
    "asset" : {
        "generator" : "Khronos glTF Blender I/O v3.2.43",
        "version" : "2.0"
    },
    "scene" : 0,
    "scenes" : [
        {
            "name" : "Scene",
            "nodes" : [
                10
            ]
        }
    ],
    "nodes" : [
        {
            "mesh" : 0,
            "name" : "Cylinder.315_Aluminum.001_0"
        },
        {
            "mesh" : 1,
            "name" : "Cylinder.315_dr6 8inch amber OFF_0"
        },
        {
            "mesh" : 2,
            "name" : "Cylinder.315_DR6 8inch green ON_0"
        },
        {
            "mesh" : 3,
            "name" : "Cylinder.315_dr6 8inch red OFF_0"
        },
        {
            "mesh" : 4,
            "name" : "Cylinder.315_inner visor.001_0"
        },
        {
            "mesh" : 5,
            "name" : "Cylinder.315_rubber rim_0"
        },
        {
            "mesh" : 6,
            "name" : "Cylinder.315_wingnuts_0"
        },
        {
            "children" : [
                0,
                1,
                2,
                3,
                4,
                5,
                6
            ],
            "name" : "Cylinder.315",
            "rotation" : [
                0.0014003601390868425,
                -0.000552867422811687,
                0.43332046270370483,
                0.9012386798858643
            ],
            "scale" : [
                2.356785535812378,
                2.356785535812378,
                2.356785297393799
            ]
        },
        {
            "children" : [
                7
            ],
            "name" : "RootNode"
        },
        {
            "children" : [
                8
            ],
            "name" : "76fe43a396154223a35ed1c515479137.fbx",
            "rotation" : [
                0.7071068286895752,
                0,
                0,
                0.7071067094802856
            ],
            "scale" : [
                0.009999999776482582,
                0.010000000707805157,
                0.010000000707805157
            ]
        },
        {
            "children" : [
                9
            ],
            "name" : "Sketchfab_model",
            "rotation" : [
                -0.7071068286895752,
                0,
                0,
                0.7071067094802856
            ]
        }
    ],
    "materials" : [
        {
            "doubleSided" : true,
            "name" : "Aluminum.001",
            "pbrMetallicRoughness" : {
                "baseColorFactor" : [
                    0.017387699335813522,
                    0.017387699335813522,
                    0.017387699335813522,
                    1
                ],
                "metallicFactor" : 0.48812389373779297,
                "roughnessFactor" : 0.004956256598234177
            }
        },
        {
            "doubleSided" : true,
            "name" : "dr6_8inch_amber_OFF",
            "pbrMetallicRoughness" : {
                "baseColorTexture" : {
                    "index" : 0
                },
                "metallicFactor" : 0,
                "roughnessFactor" : 0
            }
        },
        {
            "doubleSided" : true,
            "emissiveFactor" : [
                0,
                1,
                0.06518791615962982
            ],
            "name" : "DR6_8inch_green_ON",
            "pbrMetallicRoughness" : {
                "baseColorTexture" : {
                    "index" : 1
                },
                "metallicFactor" : 0,
                "roughnessFactor" : 0.8040408492088318
            }
        },
        {
            "doubleSided" : true,
            "name" : "dr6_8inch_red_OFF",
            "pbrMetallicRoughness" : {
                "baseColorTexture" : {
                    "index" : 2
                },
                "metallicFactor" : 0,
                "roughnessFactor" : 0
            }
        },
        {
            "doubleSided" : true,
            "name" : "inner_visor.001",
            "pbrMetallicRoughness" : {
                "baseColorFactor" : [
                    0.0015474800020456314,
                    0.0015474800020456314,
                    0.0015474800020456314,
                    1
                ],
                "metallicFactor" : 0.8407739400863647,
                "roughnessFactor" : 0.9995466470718384
            }
        },
        {
            "doubleSided" : true,
            "name" : "rubber_rim",
            "pbrMetallicRoughness" : {
                "baseColorFactor" : [
                    0.014669500291347504,
                    0.014669500291347504,
                    0.014669500291347504,
                    1
                ],
                "metallicFactor" : 0
            }
        },
        {
            "doubleSided" : true,
            "emissiveFactor" : [
                0.06997840106487274,
                0.06997840106487274,
                0.06997840106487274
            ],
            "name" : "wingnuts",
            "pbrMetallicRoughness" : {
                "baseColorFactor" : [
                    0.6618639826774597,
                    0.6618639826774597,
                    0.6618639826774597,
                    1
                ],
                "metallicFactor" : 0.8954954743385315,
                "roughnessFactor" : 0.8622219562530518
            }
        }
    ],
    "meshes" : [
        {
            "name" : "Cylinder.315_Aluminum.001_0",
            "primitives" : [
                {
                    "attributes" : {
                        "POSITION" : 0,
                        "NORMAL" : 1,
                        "TEXCOORD_0" : 2
                    },
                    "indices" : 3,
                    "material" : 0
                }
            ]
        },
        {
            "name" : "Cylinder.315_dr6 8inch amber OFF_0",
            "primitives" : [
                {
                    "attributes" : {
                        "POSITION" : 4,
                        "NORMAL" : 5,
                        "TEXCOORD_0" : 6
                    },
                    "indices" : 7,
                    "material" : 1
                }
            ]
        },
        {
            "name" : "Cylinder.315_DR6 8inch green ON_0",
            "primitives" : [
                {
                    "attributes" : {
                        "POSITION" : 8,
                        "NORMAL" : 9,
                        "TEXCOORD_0" : 10
                    },
                    "indices" : 7,
                    "material" : 2
                }
            ]
        },
        {
            "name" : "Cylinder.315_dr6 8inch red OFF_0",
            "primitives" : [
                {
                    "attributes" : {
                        "POSITION" : 11,
                        "NORMAL" : 12,
                        "TEXCOORD_0" : 13
                    },
                    "indices" : 7,
                    "material" : 3
                }
            ]
        },
        {
            "name" : "Cylinder.315_inner visor.001_0",
            "primitives" : [
                {
                    "attributes" : {
                        "POSITION" : 14,
                        "NORMAL" : 15,
                        "TEXCOORD_0" : 16
                    },
                    "indices" : 17,
                    "material" : 4
                }
            ]
        },
        {
            "name" : "Cylinder.315_rubber rim_0",
            "primitives" : [
                {
                    "attributes" : {
                        "POSITION" : 18,
                        "NORMAL" : 19,
                        "TEXCOORD_0" : 20
                    },
                    "indices" : 21,
                    "material" : 5
                }
            ]
        },
        {
            "name" : "Cylinder.315_wingnuts_0",
            "primitives" : [
                {
                    "attributes" : {
                        "POSITION" : 22,
                        "NORMAL" : 23,
                        "TEXCOORD_0" : 24
                    },
                    "indices" : 25,
                    "material" : 6
                }
            ]
        }
    ],
    "textures" : [
        {
            "sampler" : 0,
            "source" : 0
        },
        {
            "sampler" : 0,
            "source" : 1
        },
        {
            "sampler" : 0,
            "source" : 2
        }
    ],
    "images" : [
        {
            "bufferView" : 8,
            "mimeType" : "image/jpeg",
            "name" : "dr6_8inch_amber_OFF_baseColor"
        },
        {
            "bufferView" : 12,
            "mimeType" : "image/jpeg",
            "name" : "DR6_8inch_green_ON_baseColor"
        },
        {
            "bufferView" : 16,
            "mimeType" : "image/jpeg",
            "name" : "dr6_8inch_red_OFF_baseColor"
        }
    ],
    "accessors" : [
        {
            "bufferView" : 0,
            "componentType" : 5126,
            "count" : 5004,
            "max" : [
                16.949462890625,
                15.340302467346191,
                8.063158988952637
            ],
            "min" : [
                -17.035747528076172,
                -15.058680534362793,
                -10.243475914001465
            ],
            "type" : "VEC3"
        },
        {
            "bufferView" : 1,
            "componentType" : 5126,
            "count" : 5004,
            "type" : "VEC3"
        },
        {
            "bufferView" : 2,
            "componentType" : 5126,
            "count" : 5004,
            "type" : "VEC2"
        },
        {
            "bufferView" : 3,
            "componentType" : 5123,
            "count" : 6189,
            "type" : "SCALAR"
        },
        {
            "bufferView" : 4,
            "componentType" : 5126,
            "count" : 144,
            "max" : [
                4.195858478546143,
                4.331031799316406,
                0.9754486680030823
            ],
            "min" : [
                -4.159814834594727,
                -4.024648666381836,
                -0.48240402340888977
            ],
            "type" : "VEC3"
        },
        {
            "bufferView" : 5,
            "componentType" : 5126,
            "count" : 144,
            "type" : "VEC3"
        },
        {
            "bufferView" : 6,
            "componentType" : 5126,
            "count" : 144,
            "type" : "VEC2"
        },
        {
            "bufferView" : 7,
            "componentType" : 5123,
            "count" : 810,
            "type" : "SCALAR"
        },
        {
            "bufferView" : 9,
            "componentType" : 5126,
            "count" : 144,
            "max" : [
                -4.750796318054199,
                -2.8220443725585938,
                1.0098726749420166
            ],
            "min" : [
                -13.106471061706543,
                -11.17772388458252,
                -0.44798025488853455
            ],
            "type" : "VEC3"
        },
        {
            "bufferView" : 10,
            "componentType" : 5126,
            "count" : 144,
            "type" : "VEC3"
        },
        {
            "bufferView" : 11,
            "componentType" : 5126,
            "count" : 144,
            "type" : "VEC2"
        },
        {
            "bufferView" : 13,
            "componentType" : 5126,
            "count" : 144,
            "max" : [
                13.139583587646484,
                11.481666564941406,
                0.9410248398780823
            ],
            "min" : [
                4.783910751342773,
                3.125986099243164,
                -0.5168278813362122
            ],
            "type" : "VEC3"
        },
        {
            "bufferView" : 14,
            "componentType" : 5126,
            "count" : 144,
            "type" : "VEC3"
        },
        {
            "bufferView" : 15,
            "componentType" : 5126,
            "count" : 144,
            "type" : "VEC2"
        },
        {
            "bufferView" : 17,
            "componentType" : 5126,
            "count" : 180,
            "max" : [
                13.486180305480957,
                11.827428817749023,
                8.063040733337402
            ],
            "min" : [
                -13.488213539123535,
                -11.705998420715332,
                -3.261594533920288
            ],
            "type" : "VEC3"
        },
        {
            "bufferView" : 18,
            "componentType" : 5126,
            "count" : 180,
            "type" : "VEC3"
        },
        {
            "bufferView" : 19,
            "componentType" : 5126,
            "count" : 180,
            "type" : "VEC2"
        },
        {
            "bufferView" : 20,
            "componentType" : 5123,
            "count" : 390,
            "type" : "SCALAR"
        },
        {
            "bufferView" : 21,
            "componentType" : 5126,
            "count" : 1114,
            "max" : [
                13.337898254394531,
                11.679980278015137,
                -0.4223274886608124
            ],
            "min" : [
                -13.306208610534668,
                -11.377358436584473,
                -1.162179946899414
            ],
            "type" : "VEC3"
        },
        {
            "bufferView" : 22,
            "componentType" : 5126,
            "count" : 1114,
            "type" : "VEC3"
        },
        {
            "bufferView" : 23,
            "componentType" : 5126,
            "count" : 1114,
            "type" : "VEC2"
        },
        {
            "bufferView" : 24,
            "componentType" : 5123,
            "count" : 1116,
            "type" : "SCALAR"
        },
        {
            "bufferView" : 25,
            "componentType" : 5126,
            "count" : 1011,
            "max" : [
                13.59052562713623,
                2.954237937927246,
                -0.4031446874141693
            ],
            "min" : [
                -5.864026069641113,
                -11.978869438171387,
                -2.2560482025146484
            ],
            "type" : "VEC3"
        },
        {
            "bufferView" : 26,
            "componentType" : 5126,
            "count" : 1011,
            "type" : "VEC3"
        },
        {
            "bufferView" : 27,
            "componentType" : 5126,
            "count" : 1011,
            "type" : "VEC2"
        },
        {
            "bufferView" : 28,
            "componentType" : 5123,
            "count" : 1134,
            "type" : "SCALAR"
        }
    ],
    "bufferViews" : [
        {
            "buffer" : 0,
            "byteLength" : 60048,
            "byteOffset" : 0
        },
        {
            "buffer" : 0,
            "byteLength" : 60048,
            "byteOffset" : 60048
        },
        {
            "buffer" : 0,
            "byteLength" : 40032,
            "byteOffset" : 120096
        },
        {
            "buffer" : 0,
            "byteLength" : 12378,
            "byteOffset" : 160128
        },
        {
            "buffer" : 0,
            "byteLength" : 1728,
            "byteOffset" : 172508
        },
        {
            "buffer" : 0,
            "byteLength" : 1728,
            "byteOffset" : 174236
        },
        {
            "buffer" : 0,
            "byteLength" : 1152,
            "byteOffset" : 175964
        },
        {
            "buffer" : 0,
            "byteLength" : 1620,
            "byteOffset" : 177116
        },
        {
            "buffer" : 0,
            "byteLength" : 47204,
            "byteOffset" : 178736
        },
        {
            "buffer" : 0,
            "byteLength" : 1728,
            "byteOffset" : 225940
        },
        {
            "buffer" : 0,
            "byteLength" : 1728,
            "byteOffset" : 227668
        },
        {
            "buffer" : 0,
            "byteLength" : 1152,
            "byteOffset" : 229396
        },
        {
            "buffer" : 0,
            "byteLength" : 57758,
            "byteOffset" : 230548
        },
        {
            "buffer" : 0,
            "byteLength" : 1728,
            "byteOffset" : 288308
        },
        {
            "buffer" : 0,
            "byteLength" : 1728,
            "byteOffset" : 290036
        },
        {
            "buffer" : 0,
            "byteLength" : 1152,
            "byteOffset" : 291764
        },
        {
            "buffer" : 0,
            "byteLength" : 48176,
            "byteOffset" : 292916
        },
        {
            "buffer" : 0,
            "byteLength" : 2160,
            "byteOffset" : 341092
        },
        {
            "buffer" : 0,
            "byteLength" : 2160,
            "byteOffset" : 343252
        },
        {
            "buffer" : 0,
            "byteLength" : 1440,
            "byteOffset" : 345412
        },
        {
            "buffer" : 0,
            "byteLength" : 780,
            "byteOffset" : 346852
        },
        {
            "buffer" : 0,
            "byteLength" : 13368,
            "byteOffset" : 347632
        },
        {
            "buffer" : 0,
            "byteLength" : 13368,
            "byteOffset" : 361000
        },
        {
            "buffer" : 0,
            "byteLength" : 8912,
            "byteOffset" : 374368
        },
        {
            "buffer" : 0,
            "byteLength" : 2232,
            "byteOffset" : 383280
        },
        {
            "buffer" : 0,
            "byteLength" : 12132,
            "byteOffset" : 385512
        },
        {
            "buffer" : 0,
            "byteLength" : 12132,
            "byteOffset" : 397644
        },
        {
            "buffer" : 0,
            "byteLength" : 8088,
            "byteOffset" : 409776
        },
        {
            "buffer" : 0,
            "byteLength" : 2268,
            "byteOffset" : 417864
        }
    ],
    "samplers" : [
        {
            "magFilter" : 9729,
            "minFilter" : 9987
        }
    ],
    "buffers" : [
        {
            "byteLength" : 420132,
            "uri" : "data:application/octet-stream;base64,"
        }
    ]
}
