{
    "asset" : {
        "generator" : "Khronos glTF Blender I/O v3.2.43",
        "version" : "2.0"
    },
    "scene" : 0,
    "scenes" : [
        {
            "name" : "Scene",
            "nodes" : [
                10
            ]
        }
    ],
    "nodes" : [
        {
            "mesh" : 0,
            "name" : "Cylinder.299_Aluminum.001_0"
        },
        {
            "mesh" : 1,
            "name" : "Cylinder.299_dr6 8inch amber OFF_0"
        },
        {
            "mesh" : 2,
            "name" : "Cylinder.299_DR6 8inch lens OFF_0"
        },
        {
            "mesh" : 3,
            "name" : "Cylinder.299_dr6 8inch red ON_0"
        },
        {
            "mesh" : 4,
            "name" : "Cylinder.299_inner visor.001_0"
        },
        {
            "mesh" : 5,
            "name" : "Cylinder.299_rubber rim_0"
        },
        {
            "mesh" : 6,
            "name" : "Cylinder.299_wingnuts_0"
        },
        {
            "children" : [
                0,
                1,
                2,
                3,
                4,
                5,
                6
            ],
            "name" : "Cylinder.299",
            "rotation" : [
                0.0014003601390868425,
                -0.000552867422811687,
                0.43332046270370483,
                0.9012386798858643
            ],
            "scale" : [
                2.356785535812378,
                2.356785535812378,
                2.356785297393799
            ]
        },
        {
            "children" : [
                7
            ],
            "name" : "RootNode"
        },
        {
            "children" : [
                8
            ],
            "name" : "76fe43a396154223a35ed1c515479137.fbx",
            "rotation" : [
                0.7071068286895752,
                0,
                0,
                0.7071067094802856
            ],
            "scale" : [
                0.009999999776482582,
                0.010000000707805157,
                0.010000000707805157
            ]
        },
        {
            "children" : [
                9
            ],
            "name" : "Sketchfab_model",
            "rotation" : [
                -0.7071068286895752,
                0,
                0,
                0.7071067094802856
            ]
        }
    ],
    "materials" : [
        {
            "doubleSided" : true,
            "name" : "Aluminum.001",
            "pbrMetallicRoughness" : {
                "baseColorFactor" : [
                    0.017387699335813522,
                    0.017387699335813522,
                    0.017387699335813522,
                    1
                ],
                "metallicFactor" : 0.48812389373779297,
                "roughnessFactor" : 0.004956256598234177
            }
        },
        {
            "doubleSided" : true,
            "name" : "dr6_8inch_amber_OFF",
            "pbrMetallicRoughness" : {
                "baseColorTexture" : {
                    "index" : 0
                },
                "metallicFactor" : 0,
                "roughnessFactor" : 0
            }
        },
        {
            "doubleSided" : true,
            "name" : "DR6_8inch_lens_OFF",
            "pbrMetallicRoughness" : {
                "baseColorTexture" : {
                    "index" : 1
                },
                "metallicFactor" : 0,
                "roughnessFactor" : 0
            }
        },
        {
            "doubleSided" : true,
            "emissiveFactor" : [
                1,
                0,
                0
            ],
            "name" : "dr6_8inch_red_ON",
            "pbrMetallicRoughness" : {
                "baseColorTexture" : {
                    "index" : 2
                },
                "metallicFactor" : 0,
                "roughnessFactor" : 0
            }
        },
        {
            "doubleSided" : true,
            "name" : "inner_visor.001",
            "pbrMetallicRoughness" : {
                "baseColorFactor" : [
                    0.0015474800020456314,
                    0.0015474800020456314,
                    0.0015474800020456314,
                    1
                ],
                "metallicFactor" : 0.8407739400863647,
                "roughnessFactor" : 0.9995466470718384
            }
        },
        {
            "doubleSided" : true,
            "name" : "rubber_rim",
            "pbrMetallicRoughness" : {
                "baseColorFactor" : [
                    0.014669500291347504,
                    0.014669500291347504,
                    0.014669500291347504,
                    1
                ],
                "metallicFactor" : 0
            }
        },
        {
            "doubleSided" : true,
            "emissiveFactor" : [
                0.06997840106487274,
                0.06997840106487274,
                0.06997840106487274
            ],
            "name" : "wingnuts",
            "pbrMetallicRoughness" : {
                "baseColorFactor" : [
                    0.6618639826774597,
                    0.6618639826774597,
                    0.6618639826774597,
                    1
                ],
                "metallicFactor" : 0.8954954743385315,
                "roughnessFactor" : 0.8622219562530518
            }
        }
    ],
    "meshes" : [
        {
            "name" : "Cylinder.299_Aluminum.001_0",
            "primitives" : [
                {
                    "attributes" : {
                        "POSITION" : 0,
                        "NORMAL" : 1,
                        "TEXCOORD_0" : 2
                    },
                    "indices" : 3,
                    "material" : 0
                }
            ]
        },
        {
            "name" : "Cylinder.299_dr6 8inch amber OFF_0",
            "primitives" : [
                {
                    "attributes" : {
                        "POSITION" : 4,
                        "NORMAL" : 5,
                        "TEXCOORD_0" : 6
                    },
                    "indices" : 7,
                    "material" : 1
                }
            ]
        },
        {
            "name" : "Cylinder.299_DR6 8inch lens OFF_0",
            "primitives" : [
                {
                    "attributes" : {
                        "POSITION" : 8,
                        "NORMAL" : 9,
                        "TEXCOORD_0" : 10
                    },
                    "indices" : 7,
                    "material" : 2
                }
            ]
        },
        {
            "name" : "Cylinder.299_dr6 8inch red ON_0",
            "primitives" : [
                {
                    "attributes" : {
                        "POSITION" : 11,
                        "NORMAL" : 12,
                        "TEXCOORD_0" : 13
                    },
                    "indices" : 7,
                    "material" : 3
                }
            ]
        },
        {
            "name" : "Cylinder.299_inner visor.001_0",
            "primitives" : [
                {
                    "attributes" : {
                        "POSITION" : 14,
                        "NORMAL" : 15,
                        "TEXCOORD_0" : 16
                    },
                    "indices" : 17,
                    "material" : 4
                }
            ]
        },
        {
            "name" : "Cylinder.299_rubber rim_0",
            "primitives" : [
                {
                    "attributes" : {
                        "POSITION" : 18,
                        "NORMAL" : 19,
                        "TEXCOORD_0" : 20
                    },
                    "indices" : 21,
                    "material" : 5
                }
            ]
        },
        {
            "name" : "Cylinder.299_wingnuts_0",
            "primitives" : [
                {
                    "attributes" : {
                        "POSITION" : 22,
                        "NORMAL" : 23,
                        "TEXCOORD_0" : 24
                    },
                    "indices" : 25,
                    "material" : 6
                }
            ]
        }
    ],
    "textures" : [
        {
            "sampler" : 0,
            "source" : 0
        },
        {
            "sampler" : 0,
            "source" : 1
        },
        {
            "sampler" : 0,
            "source" : 2
        }
    ],
    "images" : [
        {
            "bufferView" : 8,
            "mimeType" : "image/jpeg",
            "name" : "dr6_8inch_amber_OFF_baseColor"
        },
        {
            "bufferView" : 12,
            "mimeType" : "image/jpeg",
            "name" : "DR6_8inch_lens_OFF_baseColor"
        },
        {
            "bufferView" : 16,
            "mimeType" : "image/jpeg",
            "name" : "dr6_8inch_red_ON_baseColor"
        }
    ],
    "accessors" : [
        {
            "bufferView" : 0,
            "componentType" : 5126,
            "count" : 5006,
            "max" : [
                16.951435089111328,
                15.350357055664062,
                8.059738159179688
            ],
            "min" : [
                -17.033531188964844,
                -15.048501968383789,
                -10.247140884399414
            ],
            "type" : "VEC3"
        },
        {
            "bufferView" : 1,
            "componentType" : 5126,
            "count" : 5006,
            "type" : "VEC3"
        },
        {
            "bufferView" : 2,
            "componentType" : 5126,
            "count" : 5006,
            "type" : "VEC2"
        },
        {
            "bufferView" : 3,
            "componentType" : 5123,
            "count" : 6189,
            "type" : "SCALAR"
        },
        {
            "bufferView" : 4,
            "componentType" : 5126,
            "count" : 144,
            "max" : [
                4.197956085205078,
                4.341088771820068,
                0.9720264673233032
            ],
            "min" : [
                -4.157717227935791,
                -4.014591217041016,
                -0.485826313495636
            ],
            "type" : "VEC3"
        },
        {
            "bufferView" : 5,
            "componentType" : 5126,
            "count" : 144,
            "type" : "VEC3"
        },
        {
            "bufferView" : 6,
            "componentType" : 5126,
            "count" : 144,
            "type" : "VEC2"
        },
        {
            "bufferView" : 7,
            "componentType" : 5123,
            "count" : 810,
            "type" : "SCALAR"
        },
        {
            "bufferView" : 9,
            "componentType" : 5126,
            "count" : 144,
            "max" : [
                -4.748780250549316,
                -2.8120369911193848,
                1.0063247680664062
            ],
            "min" : [
                -13.104454040527344,
                -11.167716979980469,
                -0.45152807235717773
            ],
            "type" : "VEC3"
        },
        {
            "bufferView" : 10,
            "componentType" : 5126,
            "count" : 144,
            "type" : "VEC3"
        },
        {
            "bufferView" : 11,
            "componentType" : 5126,
            "count" : 144,
            "type" : "VEC2"
        },
        {
            "bufferView" : 13,
            "componentType" : 5126,
            "count" : 144,
            "max" : [
                13.141643524169922,
                11.491691589355469,
                0.9375910758972168
            ],
            "min" : [
                4.785970687866211,
                3.1360116004943848,
                -0.5202617049217224
            ],
            "type" : "VEC3"
        },
        {
            "bufferView" : 14,
            "componentType" : 5126,
            "count" : 144,
            "type" : "VEC3"
        },
        {
            "bufferView" : 15,
            "componentType" : 5126,
            "count" : 144,
            "type" : "VEC2"
        },
        {
            "bufferView" : 17,
            "componentType" : 5126,
            "count" : 180,
            "max" : [
                13.488155364990234,
                11.837484359741211,
                8.059619903564453
            ],
            "min" : [
                -13.485995292663574,
                -11.695821762084961,
                -3.265260934829712
            ],
            "type" : "VEC3"
        },
        {
            "bufferView" : 18,
            "componentType" : 5126,
            "count" : 180,
            "type" : "VEC3"
        },
        {
            "bufferView" : 19,
            "componentType" : 5126,
            "count" : 180,
            "type" : "VEC2"
        },
        {
            "bufferView" : 20,
            "componentType" : 5123,
            "count" : 390,
            "type" : "SCALAR"
        },
        {
            "bufferView" : 21,
            "componentType" : 5126,
            "count" : 1116,
            "max" : [
                13.339958190917969,
                11.690006256103516,
                -0.4258752763271332
            ],
            "min" : [
                -13.304192543029785,
                -11.367350578308105,
                -1.1656138896942139
            ],
            "type" : "VEC3"
        },
        {
            "bufferView" : 22,
            "componentType" : 5126,
            "count" : 1116,
            "type" : "VEC3"
        },
        {
            "bufferView" : 23,
            "componentType" : 5126,
            "count" : 1116,
            "type" : "VEC2"
        },
        {
            "bufferView" : 24,
            "componentType" : 5123,
            "count" : 1116,
            "type" : "SCALAR"
        },
        {
            "bufferView" : 25,
            "componentType" : 5126,
            "count" : 997,
            "max" : [
                13.592500686645508,
                2.964294910430908,
                -0.40656721591949463
            ],
            "min" : [
                -5.861807823181152,
                -11.968690872192383,
                -2.2597146034240723
            ],
            "type" : "VEC3"
        },
        {
            "bufferView" : 26,
            "componentType" : 5126,
            "count" : 997,
            "type" : "VEC3"
        },
        {
            "bufferView" : 27,
            "componentType" : 5126,
            "count" : 997,
            "type" : "VEC2"
        },
        {
            "bufferView" : 28,
            "componentType" : 5123,
            "count" : 1134,
            "type" : "SCALAR"
        }
    ],
    "bufferViews" : [
        {
            "buffer" : 0,
            "byteLength" : 60072,
            "byteOffset" : 0
        },
        {
            "buffer" : 0,
            "byteLength" : 60072,
            "byteOffset" : 60072
        },
        {
            "buffer" : 0,
            "byteLength" : 40048,
            "byteOffset" : 120144
        },
        {
            "buffer" : 0,
            "byteLength" : 12378,
            "byteOffset" : 160192
        },
        {
            "buffer" : 0,
            "byteLength" : 1728,
            "byteOffset" : 172572
        },
        {
            "buffer" : 0,
            "byteLength" : 1728,
            "byteOffset" : 174300
        },
        {
            "buffer" : 0,
            "byteLength" : 1152,
            "byteOffset" : 176028
        },
        {
            "buffer" : 0,
            "byteLength" : 1620,
            "byteOffset" : 177180
        },
        {
            "buffer" : 0,
            "byteLength" : 47204,
            "byteOffset" : 178800
        },
        {
            "buffer" : 0,
            "byteLength" : 1728,
            "byteOffset" : 226004
        },
        {
            "buffer" : 0,
            "byteLength" : 1728,
            "byteOffset" : 227732
        },
        {
            "buffer" : 0,
            "byteLength" : 1152,
            "byteOffset" : 229460
        },
        {
            "buffer" : 0,
            "byteLength" : 41983,
            "byteOffset" : 230612
        },
        {
            "buffer" : 0,
            "byteLength" : 1728,
            "byteOffset" : 272596
        },
        {
            "buffer" : 0,
            "byteLength" : 1728,
            "byteOffset" : 274324
        },
        {
            "buffer" : 0,
            "byteLength" : 1152,
            "byteOffset" : 276052
        },
        {
            "buffer" : 0,
            "byteLength" : 69007,
            "byteOffset" : 277204
        },
        {
            "buffer" : 0,
            "byteLength" : 2160,
            "byteOffset" : 346212
        },
        {
            "buffer" : 0,
            "byteLength" : 2160,
            "byteOffset" : 348372
        },
        {
            "buffer" : 0,
            "byteLength" : 1440,
            "byteOffset" : 350532
        },
        {
            "buffer" : 0,
            "byteLength" : 780,
            "byteOffset" : 351972
        },
        {
            "buffer" : 0,
            "byteLength" : 13392,
            "byteOffset" : 352752
        },
        {
            "buffer" : 0,
            "byteLength" : 13392,
            "byteOffset" : 366144
        },
        {
            "buffer" : 0,
            "byteLength" : 8928,
            "byteOffset" : 379536
        },
        {
            "buffer" : 0,
            "byteLength" : 2232,
            "byteOffset" : 388464
        },
        {
            "buffer" : 0,
            "byteLength" : 11964,
            "byteOffset" : 390696
        },
        {
            "buffer" : 0,
            "byteLength" : 11964,
            "byteOffset" : 402660
        },
        {
            "buffer" : 0,
            "byteLength" : 7976,
            "byteOffset" : 414624
        },
        {
            "buffer" : 0,
            "byteLength" : 2268,
            "byteOffset" : 422600
        }
    ],
    "samplers" : [
        {
            "magFilter" : 9729,
            "minFilter" : 9987
        }
    ],
    "buffers" : [
        {
            "byteLength" : 424868,
            "uri" : "data:application/octet-stream;base64,"
        }
    ]
}
