{
    "asset" : {
        "generator" : "Khronos glTF Blender I/O v3.2.43",
        "version" : "2.0"
    },
    "scene" : 0,
    "scenes" : [
        {
            "name" : "Scene",
            "nodes" : [
                10
            ]
        }
    ],
    "nodes" : [
        {
            "mesh" : 0,
            "name" : "Cylinder.313_Aluminum.001_0"
        },
        {
            "mesh" : 1,
            "name" : "Cylinder.313_dr6 8inch amber ON_0"
        },
        {
            "mesh" : 2,
            "name" : "Cylinder.313_DR6 8inch lens OFF_0"
        },
        {
            "mesh" : 3,
            "name" : "Cylinder.313_dr6 8inch red OFF_0"
        },
        {
            "mesh" : 4,
            "name" : "Cylinder.313_inner visor.001_0"
        },
        {
            "mesh" : 5,
            "name" : "Cylinder.313_rubber rim_0"
        },
        {
            "mesh" : 6,
            "name" : "Cylinder.313_wingnuts_0"
        },
        {
            "children" : [
                0,
                1,
                2,
                3,
                4,
                5,
                6
            ],
            "name" : "Cylinder.313",
            "scale" : [
                51.26106643676758,
                51.26106262207031,
                51.26106262207031
            ]
        },
        {
            "children" : [
                7
            ],
            "name" : "RootNode"
        },
        {
            "children" : [
                8
            ],
            "name" : "76fe43a396154223a35ed1c515479137.fbx",
            "rotation" : [
                0.7071068286895752,
                0,
                0,
                0.7071067094802856
            ],
            "scale" : [
                0.009999999776482582,
                0.009999998845160007,
                0.009999998845160007
            ]
        },
        {
            "children" : [
                9
            ],
            "name" : "Sketchfab_model",
            "rotation" : [
                -0.7071068286895752,
                0,
                0,
                0.7071067094802856
            ]
        }
    ],
    "materials" : [
        {
            "doubleSided" : true,
            "name" : "Aluminum.006",
            "pbrMetallicRoughness" : {
                "baseColorFactor" : [
                    0.017387699335813522,
                    0.017387699335813522,
                    0.017387699335813522,
                    1
                ],
                "metallicFactor" : 0.48812389373779297,
                "roughnessFactor" : 0.004956256598234177
            }
        },
        {
            "doubleSided" : true,
            "name" : "dr6_8inch_amber_ON.001",
            "pbrMetallicRoughness" : {
                "baseColorFactor" : [
                    0.8000000715255737,
                    0.4465351998806,
                    0,
                    1
                ],
                "metallicFactor" : 0,
                "roughnessFactor" : 0
            }
        },
        {
            "doubleSided" : true,
            "name" : "DR6_8inch_lens_OFF.004",
            "pbrMetallicRoughness" : {
                "baseColorTexture" : {
                    "index" : 0
                },
                "metallicFactor" : 0,
                "roughnessFactor" : 0
            }
        },
        {
            "doubleSided" : true,
            "name" : "dr6_8inch_red_OFF.002",
            "pbrMetallicRoughness" : {
                "baseColorTexture" : {
                    "index" : 1
                },
                "metallicFactor" : 0,
                "roughnessFactor" : 0
            }
        },
        {
            "doubleSided" : true,
            "name" : "inner_visor.006",
            "pbrMetallicRoughness" : {
                "baseColorFactor" : [
                    0.0015474800020456314,
                    0.0015474800020456314,
                    0.0015474800020456314,
                    1
                ],
                "metallicFactor" : 0.8407739400863647,
                "roughnessFactor" : 0.9995466470718384
            }
        },
        {
            "doubleSided" : true,
            "name" : "rubber_rim.005",
            "pbrMetallicRoughness" : {
                "baseColorFactor" : [
                    0.014669500291347504,
                    0.014669500291347504,
                    0.014669500291347504,
                    1
                ],
                "metallicFactor" : 0
            }
        },
        {
            "doubleSided" : true,
            "emissiveFactor" : [
                0.06997840106487274,
                0.06997840106487274,
                0.06997840106487274
            ],
            "name" : "wingnuts.005",
            "pbrMetallicRoughness" : {
                "baseColorFactor" : [
                    0.6618639826774597,
                    0.6618639826774597,
                    0.6618639826774597,
                    1
                ],
                "metallicFactor" : 0.8954954743385315,
                "roughnessFactor" : 0.8622219562530518
            }
        }
    ],
    "meshes" : [
        {
            "name" : "Cylinder.313_Aluminum.001_0.001",
            "primitives" : [
                {
                    "attributes" : {
                        "POSITION" : 0,
                        "NORMAL" : 1,
                        "TEXCOORD_0" : 2
                    },
                    "indices" : 3,
                    "material" : 0
                }
            ]
        },
        {
            "name" : "Cylinder.313_dr6 8inch amber ON_0.001",
            "primitives" : [
                {
                    "attributes" : {
                        "POSITION" : 4,
                        "NORMAL" : 5,
                        "TEXCOORD_0" : 6
                    },
                    "indices" : 7,
                    "material" : 1
                }
            ]
        },
        {
            "name" : "Cylinder.313_DR6 8inch lens OFF_0.001",
            "primitives" : [
                {
                    "attributes" : {
                        "POSITION" : 8,
                        "NORMAL" : 9,
                        "TEXCOORD_0" : 10
                    },
                    "indices" : 7,
                    "material" : 2
                }
            ]
        },
        {
            "name" : "Cylinder.313_dr6 8inch red OFF_0.001",
            "primitives" : [
                {
                    "attributes" : {
                        "POSITION" : 11,
                        "NORMAL" : 12,
                        "TEXCOORD_0" : 13
                    },
                    "indices" : 7,
                    "material" : 3
                }
            ]
        },
        {
            "name" : "Cylinder.313_inner visor.001_0.001",
            "primitives" : [
                {
                    "attributes" : {
                        "POSITION" : 14,
                        "NORMAL" : 15,
                        "TEXCOORD_0" : 16
                    },
                    "indices" : 17,
                    "material" : 4
                }
            ]
        },
        {
            "name" : "Cylinder.313_rubber rim_0.001",
            "primitives" : [
                {
                    "attributes" : {
                        "POSITION" : 18,
                        "NORMAL" : 19,
                        "TEXCOORD_0" : 20
                    },
                    "indices" : 21,
                    "material" : 5
                }
            ]
        },
        {
            "name" : "Cylinder.313_wingnuts_0.001",
            "primitives" : [
                {
                    "attributes" : {
                        "POSITION" : 22,
                        "NORMAL" : 23,
                        "TEXCOORD_0" : 24
                    },
                    "indices" : 25,
                    "material" : 6
                }
            ]
        }
    ],
    "textures" : [
        {
            "sampler" : 0,
            "source" : 0
        },
        {
            "sampler" : 0,
            "source" : 1
        }
    ],
    "images" : [
        {
            "bufferView" : 11,
            "mimeType" : "image/jpeg",
            "name" : "Image_0"
        },
        {
            "bufferView" : 15,
            "mimeType" : "image/jpeg",
            "name" : "Image_1"
        }
    ],
    "accessors" : [
        {
            "bufferView" : 0,
            "componentType" : 5126,
            "count" : 5138,
            "max" : [
                0.28324007987976074,
                0.7918446063995361,
                0.3689057528972626
            ],
            "min" : [
                -0.3047744631767273,
                -0.7875572443008423,
                -0.4682524502277374
            ],
            "type" : "VEC3"
        },
        {
            "bufferView" : 1,
            "componentType" : 5126,
            "count" : 5138,
            "type" : "VEC3"
        },
        {
            "bufferView" : 2,
            "componentType" : 5126,
            "count" : 5138,
            "type" : "VEC2"
        },
        {
            "bufferView" : 3,
            "componentType" : 5123,
            "count" : 6189,
            "type" : "SCALAR"
        },
        {
            "bufferView" : 4,
            "componentType" : 5126,
            "count" : 144,
            "max" : [
                0.1763000339269638,
                0.1934964656829834,
                0.04527691379189491
            ],
            "min" : [
                -0.20190228521823883,
                -0.184705913066864,
                -0.021276721730828285
            ],
            "type" : "VEC3"
        },
        {
            "bufferView" : 5,
            "componentType" : 5126,
            "count" : 144,
            "type" : "VEC3"
        },
        {
            "bufferView" : 6,
            "componentType" : 5126,
            "count" : 144,
            "type" : "VEC2"
        },
        {
            "bufferView" : 7,
            "componentType" : 5123,
            "count" : 810,
            "type" : "SCALAR"
        },
        {
            "bufferView" : 8,
            "componentType" : 5126,
            "count" : 144,
            "max" : [
                0.17629268765449524,
                -0.3331480026245117,
                0.045286405831575394
            ],
            "min" : [
                -0.201909601688385,
                -0.7113503217697144,
                -0.021267224103212357
            ],
            "type" : "VEC3"
        },
        {
            "bufferView" : 9,
            "componentType" : 5126,
            "count" : 144,
            "type" : "VEC3"
        },
        {
            "bufferView" : 10,
            "componentType" : 5126,
            "count" : 144,
            "type" : "VEC2"
        },
        {
            "bufferView" : 12,
            "componentType" : 5126,
            "count" : 144,
            "max" : [
                0.17629238963127136,
                0.719963550567627,
                0.045276906341314316
            ],
            "min" : [
                -0.2019098997116089,
                0.34176117181777954,
                -0.021276721730828285
            ],
            "type" : "VEC3"
        },
        {
            "bufferView" : 13,
            "componentType" : 5126,
            "count" : 144,
            "type" : "VEC3"
        },
        {
            "bufferView" : 14,
            "componentType" : 5126,
            "count" : 144,
            "type" : "VEC2"
        },
        {
            "bufferView" : 16,
            "componentType" : 5126,
            "count" : 180,
            "max" : [
                0.2585380971431732,
                0.7345696091651917,
                0.3689057528972626
            ],
            "min" : [
                -0.27739766240119934,
                -0.7137895226478577,
                -0.14879365265369415
            ],
            "type" : "VEC3"
        },
        {
            "bufferView" : 17,
            "componentType" : 5126,
            "count" : 180,
            "type" : "VEC3"
        },
        {
            "bufferView" : 18,
            "componentType" : 5126,
            "count" : 180,
            "type" : "VEC2"
        },
        {
            "bufferView" : 19,
            "componentType" : 5123,
            "count" : 390,
            "type" : "SCALAR"
        },
        {
            "bufferView" : 20,
            "componentType" : 5126,
            "count" : 1037,
            "max" : [
                0.1852763146162033,
                0.7289397716522217,
                -0.02126721665263176
            ],
            "min" : [
                -0.2108861804008484,
                -0.7203266024589539,
                -0.050920311361551285
            ],
            "type" : "VEC3"
        },
        {
            "bufferView" : 21,
            "componentType" : 5126,
            "count" : 1037,
            "type" : "VEC3"
        },
        {
            "bufferView" : 22,
            "componentType" : 5126,
            "count" : 1037,
            "type" : "VEC2"
        },
        {
            "bufferView" : 23,
            "componentType" : 5123,
            "count" : 1116,
            "type" : "SCALAR"
        },
        {
            "bufferView" : 24,
            "componentType" : 5126,
            "count" : 1127,
            "max" : [
                0.29073524475097656,
                0.5657803416252136,
                -0.01977596804499626
            ],
            "min" : [
                0.2393207848072052,
                -0.5485610961914062,
                -0.10191228240728378
            ],
            "type" : "VEC3"
        },
        {
            "bufferView" : 25,
            "componentType" : 5126,
            "count" : 1127,
            "type" : "VEC3"
        },
        {
            "bufferView" : 26,
            "componentType" : 5126,
            "count" : 1127,
            "type" : "VEC2"
        },
        {
            "bufferView" : 27,
            "componentType" : 5123,
            "count" : 1143,
            "type" : "SCALAR"
        }
    ],
    "bufferViews" : [
        {
            "buffer" : 0,
            "byteLength" : 61656,
            "byteOffset" : 0
        },
        {
            "buffer" : 0,
            "byteLength" : 61656,
            "byteOffset" : 61656
        },
        {
            "buffer" : 0,
            "byteLength" : 41104,
            "byteOffset" : 123312
        },
        {
            "buffer" : 0,
            "byteLength" : 12378,
            "byteOffset" : 164416
        },
        {
            "buffer" : 0,
            "byteLength" : 1728,
            "byteOffset" : 176796
        },
        {
            "buffer" : 0,
            "byteLength" : 1728,
            "byteOffset" : 178524
        },
        {
            "buffer" : 0,
            "byteLength" : 1152,
            "byteOffset" : 180252
        },
        {
            "buffer" : 0,
            "byteLength" : 1620,
            "byteOffset" : 181404
        },
        {
            "buffer" : 0,
            "byteLength" : 1728,
            "byteOffset" : 183024
        },
        {
            "buffer" : 0,
            "byteLength" : 1728,
            "byteOffset" : 184752
        },
        {
            "buffer" : 0,
            "byteLength" : 1152,
            "byteOffset" : 186480
        },
        {
            "buffer" : 0,
            "byteLength" : 41983,
            "byteOffset" : 187632
        },
        {
            "buffer" : 0,
            "byteLength" : 1728,
            "byteOffset" : 229616
        },
        {
            "buffer" : 0,
            "byteLength" : 1728,
            "byteOffset" : 231344
        },
        {
            "buffer" : 0,
            "byteLength" : 1152,
            "byteOffset" : 233072
        },
        {
            "buffer" : 0,
            "byteLength" : 41983,
            "byteOffset" : 234224
        },
        {
            "buffer" : 0,
            "byteLength" : 2160,
            "byteOffset" : 276208
        },
        {
            "buffer" : 0,
            "byteLength" : 2160,
            "byteOffset" : 278368
        },
        {
            "buffer" : 0,
            "byteLength" : 1440,
            "byteOffset" : 280528
        },
        {
            "buffer" : 0,
            "byteLength" : 780,
            "byteOffset" : 281968
        },
        {
            "buffer" : 0,
            "byteLength" : 12444,
            "byteOffset" : 282748
        },
        {
            "buffer" : 0,
            "byteLength" : 12444,
            "byteOffset" : 295192
        },
        {
            "buffer" : 0,
            "byteLength" : 8296,
            "byteOffset" : 307636
        },
        {
            "buffer" : 0,
            "byteLength" : 2232,
            "byteOffset" : 315932
        },
        {
            "buffer" : 0,
            "byteLength" : 13524,
            "byteOffset" : 318164
        },
        {
            "buffer" : 0,
            "byteLength" : 13524,
            "byteOffset" : 331688
        },
        {
            "buffer" : 0,
            "byteLength" : 9016,
            "byteOffset" : 345212
        },
        {
            "buffer" : 0,
            "byteLength" : 2286,
            "byteOffset" : 354228
        }
    ],
    "samplers" : [
        {
            "magFilter" : 9729,
            "minFilter" : 9987
        }
    ],
    "buffers" : [
        {
            "byteLength" : 356516,
            "uri" : "data:application/octet-stream;base64,"
        }
    ]
}
