{
    "asset" : {
        "generator" : "Khronos glTF Blender I/O v1.3.48",
        "version" : "2.0"
    },
    "scene" : 0,
    "scenes" : [
        {
            "name" : "Scene",
            "nodes" : [
                0,
                1,
                2,
                3,
                4,
                5,
                6,
                7
            ]
        }
    ],
    "nodes" : [
        {
            "mesh" : 0,
            "name" : "Box3",
            "rotation" : [
                0.7108938694000244,
                -0.005788943264633417,
                0.7032750248908997,
                0.0007914079469628632
            ],
            "scale" : [
                0.09870000183582306,
                1,
                1
            ],
            "translation" : [
                0.011691519990563393,
                1.111484169960022,
                0.059818729758262634
            ]
        },
        {
            "mesh" : 1,
            "name" : "Box4",
            "rotation" : [
                0.7108938694000244,
                -0.005788928363472223,
                0.7032750248908997,
                0.0007914228481240571
            ],
            "scale" : [
                0.056400004774332047,
                1,
                1
            ],
            "translation" : [
                0.012901286594569683,
                1.1116410493850708,
                0.17161217331886292
            ]
        },
        {
            "mesh" : 2,
            "name" : "Box1",
            "rotation" : [
                0.7032652497291565,
                -0.003787597641348839,
                -0.7109121084213257,
                -0.0027602300979197025
            ],
            "translation" : [
                -0.0010148631408810616,
                1.1224079132080078,
                -0.8013101816177368
            ]
        },
        {
            "mesh" : 3,
            "name" : "Box6",
            "rotation" : [
                0.7108938694000244,
                -0.005788928363472223,
                0.7032750248908997,
                0.0007914228481240571
            ],
            "scale" : [
                0.056400004774332047,
                1,
                1
            ],
            "translation" : [
                0.014820835553109646,
                1.1118898391723633,
                0.3490016460418701
            ]
        },
        {
            "mesh" : 4,
            "name" : "Box2",
            "rotation" : [
                0.7108938694000244,
                -0.005788928363472223,
                0.7032750248908997,
                0.0007914228481240571
            ],
            "scale" : [
                0.16110002994537354,
                1,
                1
            ],
            "translation" : [
                0.009853145107626915,
                1.1112456321716309,
                -0.11007107049226761
            ]
        },
        {
            "mesh" : 5,
            "name" : "Box",
            "rotation" : [
                0.7108938694000244,
                -0.005788928363472223,
                0.7032750248908997,
                0.0007914228481240571
            ],
            "scale" : [
                0.2882999777793884,
                1,
                1
            ],
            "translation" : [
                0.007033265195786953,
                1.1108803749084473,
                -0.37065550684928894
            ]
        },
        {
            "mesh" : 6,
            "name" : "Box5",
            "rotation" : [
                0.7108938694000244,
                -0.005788928363472223,
                0.7032750248908997,
                0.0007914228481240571
            ],
            "scale" : [
                0.056400004774332047,
                1,
                1
            ],
            "translation" : [
                0.01382104679942131,
                1.111760139465332,
                0.2566070556640625
            ]
        },
        {
            "mesh" : 7,
            "name" : "Box7",
            "rotation" : [
                0.7108938694000244,
                -0.005788928363472223,
                0.7032750248908997,
                0.0007914228481240571
            ],
            "scale" : [
                0.014700002036988735,
                1,
                1
            ],
            "translation" : [
                0.015594525262713432,
                1.1119900941848755,
                0.4204973578453064
            ]
        }
    ],
    "materials" : [
        {
            "emissiveFactor" : [
                0,
                0,
                0
            ],
            "name" : "Standard2",
            "pbrMetallicRoughness" : {
                "baseColorFactor" : [
                    0.004587320610880852,
                    0.33571434020996094,
                    0,
                    0.5829145908355713
                ],
                "metallicFactor" : 0,
                "roughnessFactor" : 0
            }
        }
    ],
    "meshes" : [
        {
            "name" : "Box3",
            "primitives" : [
                {
                    "attributes" : {
                        "POSITION" : 0,
                        "NORMAL" : 1,
                        "TEXCOORD_0" : 2
                    },
                    "indices" : 3,
                    "material" : 0
                }
            ]
        },
        {
            "name" : "Box4",
            "primitives" : [
                {
                    "attributes" : {
                        "POSITION" : 4,
                        "NORMAL" : 5,
                        "TEXCOORD_0" : 6
                    },
                    "indices" : 3,
                    "material" : 0
                }
            ]
        },
        {
            "name" : "Box1",
            "primitives" : [
                {
                    "attributes" : {
                        "POSITION" : 7,
                        "NORMAL" : 8,
                        "TEXCOORD_0" : 9
                    },
                    "indices" : 10,
                    "material" : 0
                }
            ]
        },
        {
            "name" : "Box6",
            "primitives" : [
                {
                    "attributes" : {
                        "POSITION" : 11,
                        "NORMAL" : 12,
                        "TEXCOORD_0" : 13
                    },
                    "indices" : 3,
                    "material" : 0
                }
            ]
        },
        {
            "name" : "Box2",
            "primitives" : [
                {
                    "attributes" : {
                        "POSITION" : 14,
                        "NORMAL" : 15,
                        "TEXCOORD_0" : 16
                    },
                    "indices" : 3,
                    "material" : 0
                }
            ]
        },
        {
            "name" : "Box",
            "primitives" : [
                {
                    "attributes" : {
                        "POSITION" : 17,
                        "NORMAL" : 18,
                        "TEXCOORD_0" : 19
                    },
                    "indices" : 3,
                    "material" : 0
                }
            ]
        },
        {
            "name" : "Box5",
            "primitives" : [
                {
                    "attributes" : {
                        "POSITION" : 20,
                        "NORMAL" : 21,
                        "TEXCOORD_0" : 22
                    },
                    "indices" : 3,
                    "material" : 0
                }
            ]
        },
        {
            "name" : "Box7",
            "primitives" : [
                {
                    "attributes" : {
                        "POSITION" : 23,
                        "NORMAL" : 24,
                        "TEXCOORD_0" : 25
                    },
                    "indices" : 3,
                    "material" : 0
                }
            ]
        }
    ],
    "accessors" : [
        {
            "bufferView" : 0,
            "componentType" : 5126,
            "count" : 24,
            "max" : [
                0.5,
                0.25,
                0.05000000074505806
            ],
            "min" : [
                -0.5,
                -0.25,
                -0.05000000074505806
            ],
            "type" : "VEC3"
        },
        {
            "bufferView" : 1,
            "componentType" : 5126,
            "count" : 24,
            "type" : "VEC3"
        },
        {
            "bufferView" : 2,
            "componentType" : 5126,
            "count" : 24,
            "type" : "VEC2"
        },
        {
            "bufferView" : 3,
            "componentType" : 5123,
            "count" : 36,
            "type" : "SCALAR"
        },
        {
            "bufferView" : 4,
            "componentType" : 5126,
            "count" : 24,
            "max" : [
                0.5,
                0.25,
                0.05000000074505806
            ],
            "min" : [
                -0.5,
                -0.25,
                -0.05000000074505806
            ],
            "type" : "VEC3"
        },
        {
            "bufferView" : 5,
            "componentType" : 5126,
            "count" : 24,
            "type" : "VEC3"
        },
        {
            "bufferView" : 6,
            "componentType" : 5126,
            "count" : 24,
            "type" : "VEC2"
        },
        {
            "bufferView" : 7,
            "componentType" : 5126,
            "count" : 18,
            "max" : [
                0.25,
                0.5,
                0.05000000074505806
            ],
            "min" : [
                -0.25,
                -0.5,
                -0.05000000074505806
            ],
            "type" : "VEC3"
        },
        {
            "bufferView" : 8,
            "componentType" : 5126,
            "count" : 18,
            "type" : "VEC3"
        },
        {
            "bufferView" : 9,
            "componentType" : 5126,
            "count" : 18,
            "type" : "VEC2"
        },
        {
            "bufferView" : 10,
            "componentType" : 5123,
            "count" : 24,
            "type" : "SCALAR"
        },
        {
            "bufferView" : 11,
            "componentType" : 5126,
            "count" : 24,
            "max" : [
                0.5,
                0.25,
                0.05000000074505806
            ],
            "min" : [
                -0.5,
                -0.25,
                -0.05000000074505806
            ],
            "type" : "VEC3"
        },
        {
            "bufferView" : 12,
            "componentType" : 5126,
            "count" : 24,
            "type" : "VEC3"
        },
        {
            "bufferView" : 13,
            "componentType" : 5126,
            "count" : 24,
            "type" : "VEC2"
        },
        {
            "bufferView" : 14,
            "componentType" : 5126,
            "count" : 24,
            "max" : [
                0.5,
                0.25,
                0.05000000074505806
            ],
            "min" : [
                -0.5,
                -0.25,
                -0.05000000074505806
            ],
            "type" : "VEC3"
        },
        {
            "bufferView" : 15,
            "componentType" : 5126,
            "count" : 24,
            "type" : "VEC3"
        },
        {
            "bufferView" : 16,
            "componentType" : 5126,
            "count" : 24,
            "type" : "VEC2"
        },
        {
            "bufferView" : 17,
            "componentType" : 5126,
            "count" : 24,
            "max" : [
                0.5,
                0.25,
                0.05000000074505806
            ],
            "min" : [
                -0.5,
                -0.25,
                -0.05000000074505806
            ],
            "type" : "VEC3"
        },
        {
            "bufferView" : 18,
            "componentType" : 5126,
            "count" : 24,
            "type" : "VEC3"
        },
        {
            "bufferView" : 19,
            "componentType" : 5126,
            "count" : 24,
            "type" : "VEC2"
        },
        {
            "bufferView" : 20,
            "componentType" : 5126,
            "count" : 24,
            "max" : [
                0.5,
                0.25,
                0.05000000074505806
            ],
            "min" : [
                -0.5,
                -0.25,
                -0.05000000074505806
            ],
            "type" : "VEC3"
        },
        {
            "bufferView" : 21,
            "componentType" : 5126,
            "count" : 24,
            "type" : "VEC3"
        },
        {
            "bufferView" : 22,
            "componentType" : 5126,
            "count" : 24,
            "type" : "VEC2"
        },
        {
            "bufferView" : 23,
            "componentType" : 5126,
            "count" : 24,
            "max" : [
                0.5,
                0.25,
                0.05000000074505806
            ],
            "min" : [
                -0.5,
                -0.25,
                -0.05000000074505806
            ],
            "type" : "VEC3"
        },
        {
            "bufferView" : 24,
            "componentType" : 5126,
            "count" : 24,
            "type" : "VEC3"
        },
        {
            "bufferView" : 25,
            "componentType" : 5126,
            "count" : 24,
            "type" : "VEC2"
        }
    ],
    "bufferViews" : [
        {
            "buffer" : 0,
            "byteLength" : 288,
            "byteOffset" : 0
        },
        {
            "buffer" : 0,
            "byteLength" : 288,
            "byteOffset" : 288
        },
        {
            "buffer" : 0,
            "byteLength" : 192,
            "byteOffset" : 576
        },
        {
            "buffer" : 0,
            "byteLength" : 72,
            "byteOffset" : 768
        },
        {
            "buffer" : 0,
            "byteLength" : 288,
            "byteOffset" : 840
        },
        {
            "buffer" : 0,
            "byteLength" : 288,
            "byteOffset" : 1128
        },
        {
            "buffer" : 0,
            "byteLength" : 192,
            "byteOffset" : 1416
        },
        {
            "buffer" : 0,
            "byteLength" : 216,
            "byteOffset" : 1608
        },
        {
            "buffer" : 0,
            "byteLength" : 216,
            "byteOffset" : 1824
        },
        {
            "buffer" : 0,
            "byteLength" : 144,
            "byteOffset" : 2040
        },
        {
            "buffer" : 0,
            "byteLength" : 48,
            "byteOffset" : 2184
        },
        {
            "buffer" : 0,
            "byteLength" : 288,
            "byteOffset" : 2232
        },
        {
            "buffer" : 0,
            "byteLength" : 288,
            "byteOffset" : 2520
        },
        {
            "buffer" : 0,
            "byteLength" : 192,
            "byteOffset" : 2808
        },
        {
            "buffer" : 0,
            "byteLength" : 288,
            "byteOffset" : 3000
        },
        {
            "buffer" : 0,
            "byteLength" : 288,
            "byteOffset" : 3288
        },
        {
            "buffer" : 0,
            "byteLength" : 192,
            "byteOffset" : 3576
        },
        {
            "buffer" : 0,
            "byteLength" : 288,
            "byteOffset" : 3768
        },
        {
            "buffer" : 0,
            "byteLength" : 288,
            "byteOffset" : 4056
        },
        {
            "buffer" : 0,
            "byteLength" : 192,
            "byteOffset" : 4344
        },
        {
            "buffer" : 0,
            "byteLength" : 288,
            "byteOffset" : 4536
        },
        {
            "buffer" : 0,
            "byteLength" : 288,
            "byteOffset" : 4824
        },
        {
            "buffer" : 0,
            "byteLength" : 192,
            "byteOffset" : 5112
        },
        {
            "buffer" : 0,
            "byteLength" : 288,
            "byteOffset" : 5304
        },
        {
            "buffer" : 0,
            "byteLength" : 288,
            "byteOffset" : 5592
        },
        {
            "buffer" : 0,
            "byteLength" : 192,
            "byteOffset" : 5880
        }
    ],
    "buffers" : [
        {
            "byteLength" : 6072,
            "uri" : "data:application/octet-stream;base64,"
        }
    ]
}
