{
    "asset" : {
        "generator" : "Khronos glTF Blender I/O v3.2.43",
        "version" : "2.0"
    },
    "scene" : 0,
    "scenes" : [
        {
            "name" : "Scene",
            "nodes" : [
                7
            ]
        }
    ],
    "nodes" : [
        {
            "mesh" : 0,
            "name" : "Object_2"
        },
        {
            "mesh" : 1,
            "name" : "Object_3"
        },
        {
            "mesh" : 2,
            "name" : "Object_4"
        },
        {
            "mesh" : 3,
            "name" : "Object_5"
        },
        {
            "mesh" : 4,
            "name" : "Object_7"
        },
        {
            "mesh" : 5,
            "name" : "Object_8"
        },
        {
            "children" : [
                0,
                1,
                2,
                3,
                4,
                5
            ],
            "name" : "Road Thing.obj.cleaner.materialmerger.gles"
        },
        {
            "children" : [
                6
            ],
            "name" : "Sketchfab_model",
            "rotation" : [
                -0.7071068286895752,
                0,
                0,
                0.7071067094802856
            ],
            "scale" : [
                0.699999988079071,
                0.7000000476837158,
                0.7000000476837158
            ],
            "translation" : [
                0.7900002002716064,
                0,
                -0.85999995470047
            ]
        }
    ],
    "materials" : [
        {
            "doubleSided" : true,
            "name" : "phongE6SG",
            "pbrMetallicRoughness" : {
                "baseColorFactor" : [
                    0.47999998927116394,
                    0.4399999976158142,
                    0.4399999976158142,
                    1
                ],
                "metallicFactor" : 0
            }
        },
        {
            "doubleSided" : true,
            "name" : "initialShadingGroup",
            "pbrMetallicRoughness" : {
                "baseColorFactor" : [
                    0.5,
                    0.5,
                    0.5,
                    1
                ],
                "metallicFactor" : 0
            }
        },
        {
            "doubleSided" : true,
            "name" : "phongE1SG",
            "pbrMetallicRoughness" : {
                "baseColorFactor" : [
                    0.7300000190734863,
                    0.009999999776482582,
                    0,
                    1
                ],
                "metallicFactor" : 0
            }
        },
        {
            "doubleSided" : true,
            "name" : "phongE2SG",
            "pbrMetallicRoughness" : {
                "baseColorFactor" : [
                    0.9200000166893005,
                    0.9200000166893005,
                    0.9200000166893005,
                    1
                ],
                "metallicFactor" : 0
            }
        },
        {
            "doubleSided" : true,
            "name" : "phongE4SG",
            "pbrMetallicRoughness" : {
                "baseColorFactor" : [
                    0.07999999821186066,
                    0.009999999776482582,
                    0,
                    1
                ],
                "metallicFactor" : 0
            }
        }
    ],
    "meshes" : [
        {
            "name" : "Object_0",
            "primitives" : [
                {
                    "attributes" : {
                        "POSITION" : 0,
                        "NORMAL" : 1,
                        "TEXCOORD_0" : 2
                    },
                    "indices" : 3,
                    "material" : 0
                }
            ]
        },
        {
            "name" : "Object_1",
            "primitives" : [
                {
                    "attributes" : {
                        "POSITION" : 4,
                        "NORMAL" : 5,
                        "TEXCOORD_0" : 6
                    },
                    "indices" : 7,
                    "material" : 1
                }
            ]
        },
        {
            "name" : "Object_2",
            "primitives" : [
                {
                    "attributes" : {
                        "POSITION" : 8,
                        "NORMAL" : 9,
                        "TEXCOORD_0" : 10
                    },
                    "indices" : 11,
                    "material" : 2
                }
            ]
        },
        {
            "name" : "Object_3",
            "primitives" : [
                {
                    "attributes" : {
                        "POSITION" : 12,
                        "NORMAL" : 13,
                        "TEXCOORD_0" : 14
                    },
                    "indices" : 15,
                    "material" : 3
                }
            ]
        },
        {
            "name" : "Object_5",
            "primitives" : [
                {
                    "attributes" : {
                        "POSITION" : 16,
                        "NORMAL" : 17,
                        "TEXCOORD_0" : 18
                    },
                    "indices" : 19,
                    "material" : 4
                }
            ]
        },
        {
            "name" : "Object_6",
            "primitives" : [
                {
                    "attributes" : {
                        "POSITION" : 20,
                        "NORMAL" : 21,
                        "TEXCOORD_0" : 22
                    },
                    "indices" : 23,
                    "material" : 1
                }
            ]
        }
    ],
    "accessors" : [
        {
            "bufferView" : 0,
            "componentType" : 5126,
            "count" : 48,
            "max" : [
                0.20243500173091888,
                -0.24687999486923218,
                0.016392000019550323
            ],
            "min" : [
                -2.474090099334717,
                -2.1328229904174805,
                -0.016392000019550323
            ],
            "type" : "VEC3"
        },
        {
            "bufferView" : 1,
            "componentType" : 5126,
            "count" : 48,
            "type" : "VEC3"
        },
        {
            "bufferView" : 2,
            "componentType" : 5126,
            "count" : 48,
            "type" : "VEC2"
        },
        {
            "bufferView" : 3,
            "componentType" : 5123,
            "count" : 72,
            "type" : "SCALAR"
        },
        {
            "bufferView" : 4,
            "componentType" : 5126,
            "count" : 176,
            "max" : [
                0.525288999080658,
                -1.0073200464248657,
                3.267719030380249
            ],
            "min" : [
                -2.754117012023926,
                -1.325564980506897,
                0.003944000229239464
            ],
            "type" : "VEC3"
        },
        {
            "bufferView" : 5,
            "componentType" : 5126,
            "count" : 176,
            "type" : "VEC3"
        },
        {
            "bufferView" : 6,
            "componentType" : 5126,
            "count" : 176,
            "type" : "VEC2"
        },
        {
            "bufferView" : 7,
            "componentType" : 5123,
            "count" : 288,
            "type" : "SCALAR"
        },
        {
            "bufferView" : 8,
            "componentType" : 5126,
            "count" : 224,
            "max" : [
                0.525288999080658,
                -1.2001429796218872,
                3.1841139793395996
            ],
            "min" : [
                -2.754117012023926,
                -1.2585190534591675,
                0.8287019729614258
            ],
            "type" : "VEC3"
        },
        {
            "bufferView" : 9,
            "componentType" : 5126,
            "count" : 224,
            "type" : "VEC3"
        },
        {
            "bufferView" : 10,
            "componentType" : 5126,
            "count" : 224,
            "type" : "VEC2"
        },
        {
            "bufferView" : 11,
            "componentType" : 5123,
            "count" : 288,
            "type" : "SCALAR"
        },
        {
            "bufferView" : 12,
            "componentType" : 5126,
            "count" : 220,
            "max" : [
                0.525288999080658,
                -1.2001429796218872,
                3.1841139793395996
            ],
            "min" : [
                -2.754117012023926,
                -1.2585190534591675,
                0.8287019729614258
            ],
            "type" : "VEC3"
        },
        {
            "bufferView" : 13,
            "componentType" : 5126,
            "count" : 220,
            "type" : "VEC3"
        },
        {
            "bufferView" : 14,
            "componentType" : 5126,
            "count" : 220,
            "type" : "VEC2"
        },
        {
            "bufferView" : 15,
            "componentType" : 5123,
            "count" : 288,
            "type" : "SCALAR"
        },
        {
            "bufferView" : 16,
            "componentType" : 5126,
            "count" : 96,
            "max" : [
                0.06055700033903122,
                -1.1076669692993164,
                3.267719030380249
            ],
            "min" : [
                -2.344352960586548,
                -1.22878098487854,
                0.3600650131702423
            ],
            "type" : "VEC3"
        },
        {
            "bufferView" : 17,
            "componentType" : 5126,
            "count" : 96,
            "type" : "VEC3"
        },
        {
            "bufferView" : 18,
            "componentType" : 5126,
            "count" : 96,
            "type" : "VEC2"
        },
        {
            "bufferView" : 19,
            "componentType" : 5123,
            "count" : 240,
            "type" : "SCALAR"
        },
        {
            "bufferView" : 20,
            "componentType" : 5126,
            "count" : 268,
            "max" : [
                0.1620270013809204,
                -1.0073200464248657,
                0.7064499855041504
            ],
            "min" : [
                -2.4400150775909424,
                -1.325564980506897,
                0.003944000229239464
            ],
            "type" : "VEC3"
        },
        {
            "bufferView" : 21,
            "componentType" : 5126,
            "count" : 268,
            "type" : "VEC3"
        },
        {
            "bufferView" : 22,
            "componentType" : 5126,
            "count" : 268,
            "type" : "VEC2"
        },
        {
            "bufferView" : 23,
            "componentType" : 5123,
            "count" : 540,
            "type" : "SCALAR"
        }
    ],
    "bufferViews" : [
        {
            "buffer" : 0,
            "byteLength" : 576,
            "byteOffset" : 0
        },
        {
            "buffer" : 0,
            "byteLength" : 576,
            "byteOffset" : 576
        },
        {
            "buffer" : 0,
            "byteLength" : 384,
            "byteOffset" : 1152
        },
        {
            "buffer" : 0,
            "byteLength" : 144,
            "byteOffset" : 1536
        },
        {
            "buffer" : 0,
            "byteLength" : 2112,
            "byteOffset" : 1680
        },
        {
            "buffer" : 0,
            "byteLength" : 2112,
            "byteOffset" : 3792
        },
        {
            "buffer" : 0,
            "byteLength" : 1408,
            "byteOffset" : 5904
        },
        {
            "buffer" : 0,
            "byteLength" : 576,
            "byteOffset" : 7312
        },
        {
            "buffer" : 0,
            "byteLength" : 2688,
            "byteOffset" : 7888
        },
        {
            "buffer" : 0,
            "byteLength" : 2688,
            "byteOffset" : 10576
        },
        {
            "buffer" : 0,
            "byteLength" : 1792,
            "byteOffset" : 13264
        },
        {
            "buffer" : 0,
            "byteLength" : 576,
            "byteOffset" : 15056
        },
        {
            "buffer" : 0,
            "byteLength" : 2640,
            "byteOffset" : 15632
        },
        {
            "buffer" : 0,
            "byteLength" : 2640,
            "byteOffset" : 18272
        },
        {
            "buffer" : 0,
            "byteLength" : 1760,
            "byteOffset" : 20912
        },
        {
            "buffer" : 0,
            "byteLength" : 576,
            "byteOffset" : 22672
        },
        {
            "buffer" : 0,
            "byteLength" : 1152,
            "byteOffset" : 23248
        },
        {
            "buffer" : 0,
            "byteLength" : 1152,
            "byteOffset" : 24400
        },
        {
            "buffer" : 0,
            "byteLength" : 768,
            "byteOffset" : 25552
        },
        {
            "buffer" : 0,
            "byteLength" : 480,
            "byteOffset" : 26320
        },
        {
            "buffer" : 0,
            "byteLength" : 3216,
            "byteOffset" : 26800
        },
        {
            "buffer" : 0,
            "byteLength" : 3216,
            "byteOffset" : 30016
        },
        {
            "buffer" : 0,
            "byteLength" : 2144,
            "byteOffset" : 33232
        },
        {
            "buffer" : 0,
            "byteLength" : 1080,
            "byteOffset" : 35376
        }
    ],
    "buffers" : [
        {
            "byteLength" : 36456,
            "uri" : "data:application/octet-stream;base64,"
        }
    ]
}
