{
    "asset" : {
        "generator" : "Khronos glTF Blender I/O v1.6.16",
        "version" : "2.0"
    },
    "scene" : 0,
    "scenes" : [
        {
            "name" : "Scene",
            "nodes" : [
                5
            ]
        }
    ],
    "nodes" : [
        {
            "name" : "RootNode"
        },
        {
            "children" : [
                0
            ],
            "name" : "Node_3"
        },
        {
            "children" : [
                1
            ],
            "name" : "213c1d5bdfdb414694e78855e2803abf.fbx",
            "rotation" : [
                0.7071068286895752,
                0,
                0,
                0.7071068286895752
            ]
        },
        {
            "children" : [
                2
            ],
            "name" : "RootNode (model correction matrix)"
        },
        {
            "mesh" : 0,
            "name" : "Wheel_F_R_2_0",
            "rotation" : [
                0.0039300392381846905,
                0.03483935073018074,
                0.7168551087379456,
                0.6963400840759277
            ]
        },
        {
            "children" : [
                3,
                4
            ],
            "name" : "RootNode (gltf orientation matrix)",
            "rotation" : [
                -0.7066793441772461,
                0.02775426208972931,
                0.06430479139089584,
                0.7040588855743408
            ],
            "scale" : [
                0.00776255689561367,
                0.00776255689561367,
                0.00776255689561367
            ],
            "translation" : [
                -0.023258117958903313,
                -5.620718002319336e-05,
                0.0005183280445635319
            ]
        }
    ],
    "materials" : [
        {
            "alphaMode" : "BLEND",
            "name" : "material_1",
            "normalTexture" : {
                "index" : 0
            },
            "occlusionTexture" : {
                "index" : 1
            },
            "pbrMetallicRoughness" : {
                "baseColorTexture" : {
                    "index" : 2
                },
                "metallicRoughnessTexture" : {
                    "index" : 1
                },
                "roughnessFactor" : 0.24090909957885742
            }
        }
    ],
    "meshes" : [
        {
            "name" : "Wheel_F_R_2_0",
            "primitives" : [
                {
                    "attributes" : {
                        "POSITION" : 0,
                        "NORMAL" : 1,
                        "TEXCOORD_0" : 2
                    },
                    "indices" : 3,
                    "material" : 0
                }
            ]
        }
    ],
    "textures" : [
        {
            "sampler" : 0,
            "source" : 0
        },
        {
            "sampler" : 0,
            "source" : 1
        },
        {
            "sampler" : 0,
            "source" : 2
        }
    ],
    "images" : [
        {
            "bufferView" : 4,
            "mimeType" : "image/png",
            "name" : "material_1_normal"
        },
        {
            "bufferView" : 5,
            "mimeType" : "image/png",
            "name" : "material_1_metallicRoughness"
        },
        {
            "bufferView" : 6,
            "mimeType" : "image/png",
            "name" : "material_1_baseColor"
        }
    ],
    "accessors" : [
        {
            "bufferView" : 0,
            "componentType" : 5126,
            "count" : 801,
            "max" : [
                49.10856628417969,
                15.927589416503906,
                48.08282470703125
            ],
            "min" : [
                -49.69013977050781,
                -21.729278564453125,
                -48.16973876953125
            ],
            "type" : "VEC3"
        },
        {
            "bufferView" : 1,
            "componentType" : 5126,
            "count" : 801,
            "type" : "VEC3"
        },
        {
            "bufferView" : 2,
            "componentType" : 5126,
            "count" : 801,
            "type" : "VEC2"
        },
        {
            "bufferView" : 3,
            "componentType" : 5123,
            "count" : 3540,
            "type" : "SCALAR"
        }
    ],
    "bufferViews" : [
        {
            "buffer" : 0,
            "byteLength" : 9612,
            "byteOffset" : 0
        },
        {
            "buffer" : 0,
            "byteLength" : 9612,
            "byteOffset" : 9612
        },
        {
            "buffer" : 0,
            "byteLength" : 6408,
            "byteOffset" : 19224
        },
        {
            "buffer" : 0,
            "byteLength" : 7080,
            "byteOffset" : 25632
        },
        {
            "buffer" : 0,
            "byteLength" : 118270,
            "byteOffset" : 32712
        },
        {
            "buffer" : 0,
            "byteLength" : 57183,
            "byteOffset" : 150984
        },
        {
            "buffer" : 0,
            "byteLength" : 108817,
            "byteOffset" : 208168
        }
    ],
    "samplers" : [
        {
            "magFilter" : 9729,
            "minFilter" : 9987
        }
    ],
    "buffers" : [
        {
            "byteLength" : 316988,
            "uri" : "data:application/octet-stream;base64,"
        }
    ]
}
